<?xml version="1.0" standalone="no"?>
<!DOCTYPE svg PUBLIC "-//W3C//DTD SVG 1.1//EN" "http://www.w3.org/Graphics/SVG/1.1/DTD/svg11.dtd" >
<svg xmlns="http://www.w3.org/2000/svg">
<metadata>
This is a custom SVG webfont generated by Font Squirrel.
Copyright   : Copyright  1989 1990 1991 1992 1993 1996 1997 1998 2001 Adobe Systems Incorporated  All Rights Reserved
Designer    : Howard Kettler
Foundry URL : httpwwwadobecomtype
</metadata>
<defs>
<font id="webfontcsqqJZQo" horiz-adv-x="1228" >
<font-face units-per-em="2048" ascent="1284" descent="-764" />
<missing-glyph horiz-adv-x="500" />
<glyph unicode=" " />
<glyph unicode="!" d="M768 100q0 -51 -39 -88t-100 -37q-59 0 -100.5 38t-41.5 85t40 85t106 38q49 0 92 -36t43 -85zM674 371h-90l-37 800h160z" />
<glyph unicode="&#x22;" d="M492 573h-103l-47 598h197zM850 573h-100l-48 598h193z" />
<glyph unicode="#" d="M471 729l-20 -334h294l23 334h-297zM842 287l-27 -445h-104l26 445h-293l-28 -445h-105l27 445h-199v108h207l21 334h-228v111h234l28 469h107l-29 -469h295l27 469h104l-28 -469h194v-111h-201l-20 -334h221v-108h-229z" />
<glyph unicode="$" d="M1026 342q0 -119 -89 -208t-263 -103v-312h-113v310q-66 4 -124 21.5t-113 47.5v-84h-111v326h111v-115q55 -47 126.5 -66.5t147.5 -19.5q51 0 107.5 8.5t103.5 30t78 59t31 97.5q0 59 -29 91t-72 52q-47 23 -97 37t-101.5 25.5t-101.5 25t-99 31.5q-70 27 -108 60.5 t-56 67.5t-21.5 62.5t-3.5 44.5v3q0 80 34 135t83 90t107.5 51t107.5 16v215h113v-213q53 -6 103 -25.5t97 -43.5v94h111v-307h-111v96q-59 35 -128.5 55.5t-141.5 20.5q-45 0 -92 -10.5t-86 -32t-63.5 -53t-24.5 -74.5q0 -80 62.5 -123t150.5 -66l207 -53 q154 -41 211 -105.5t57 -158.5z" />
<glyph unicode="%" d="M219 420l-29 104l850 322l31 -109zM854 229q0 57 -37 100.5t-102 43.5q-68 0 -107 -41t-39 -105q0 -63 42 -100t104 -37q68 0 103.5 44t35.5 95zM965 231q0 -53 -18.5 -99t-52.5 -81t-80 -55.5t-101 -20.5q-59 0 -106.5 20.5t-81 55.5t-52 81t-18.5 97q0 49 18.5 96.5 t51 82t79.5 56t105 21.5q66 0 113.5 -20.5t79.5 -56t47.5 -82t15.5 -95.5zM614 1018q0 57 -36.5 100t-102.5 43q-68 0 -106.5 -41t-38.5 -104t42 -100t103 -37q68 0 103.5 44t35.5 95zM727 1020q0 -53 -19.5 -99.5t-53 -81t-80 -55t-101.5 -20.5q-59 0 -106.5 20.5t-80 55 t-51 81t-18.5 97.5q0 49 17.5 96t50 82t80 56.5t104.5 21.5q66 0 115 -20.5t80.5 -56.5t47 -82t15.5 -95z" />
<glyph unicode="&#x26;" d="M477 547q-29 -12 -59.5 -33.5t-56 -51.5t-42 -71t-16.5 -94q0 -51 17.5 -90t45 -65.5t63.5 -40t75 -13.5q84 0 134 35t87 70zM856 0l-72 102q-57 -61 -135 -94t-164 -33q-82 0 -138 30t-91 74t-50.5 96t-15.5 97q0 25 5.5 67t29 91t69.5 101.5t128 97.5q-4 4 -7 10t-7 12 l-9 13q-35 53 -59.5 106t-24.5 113q0 43 18.5 83t53.5 70.5t85 49t114 18.5q78 0 148.5 -26.5t129.5 -67.5l-41 -97q-47 35 -103 57.5t-116 22.5q-43 0 -76.5 -12t-55 -30.5t-33 -41t-11.5 -43.5q0 -31 10.5 -59.5t23.5 -53t24.5 -41t15.5 -20.5l291 -413q41 59 63.5 133.5 t22.5 140.5h247v-111h-161q-14 -66 -41 -131t-68 -123l51 -75h254v-113h-305z" />
<glyph unicode="'" d="M666 573h-105l-45 598h195z" />
<glyph unicode="(" d="M889 1221q-82 -154 -136.5 -318t-54.5 -352q0 -111 25 -217.5t61.5 -203.5t78.5 -181t79 -148h-108q-45 70 -89.5 159t-80 190.5t-57 212t-21.5 223.5q0 78 18.5 172t52 192.5t79.5 195.5t100 181h110z" />
<glyph unicode=")" d="M647 586q0 -113 -22.5 -223.5t-57.5 -212t-79 -190.5t-89 -159h-108q37 63 79 147.5t78.5 181.5t61.5 203.5t25 217.5q0 188 -54.5 352t-136.5 318l-57 106h110q53 -84 99.5 -181t80 -195.5t52 -192.5t18.5 -172z" />
<glyph unicode="*" d="M711 741l176 -254l-125 -69l-154 241l-159 -241l-125 69l178 254l-289 76l33 146l299 -107l-13 315h148l-12 -315l295 107l34 -146z" />
<glyph unicode="+" d="M672 389v-385h-111v385h-387v111h387v385h111v-385h381v-111h-381z" />
<glyph unicode="," d="M504 -264h-133l151 512h195z" />
<glyph unicode="-" d="M285 453v112h655v-112h-655z" />
<glyph unicode="." d="M762 94q0 -53 -44 -86t-93 -33q-66 0 -106 37t-40 84q0 51 42 87t102 36q61 0 100 -39t39 -86z" />
<glyph unicode="/" d="M285 -293l-97 43l748 1686l96 -43z" />
<glyph unicode="0" d="M905 602q-2 94 -15 185.5t-54 168.5q-33 59 -89.5 93t-123.5 34q-84 0 -138.5 -44t-86 -114.5t-44 -158.5t-12.5 -176q0 -78 10 -153t29 -146q4 -18 18.5 -52t43 -68t73.5 -58.5t113 -24.5q90 0 144 48t84 122t39 161t9 165v18zM1016 610q0 -49 -3 -114.5t-15.5 -136 t-37 -139t-67.5 -123t-109.5 -88.5t-160.5 -34q-88 0 -151.5 32t-108 84t-70 118.5t-39.5 135.5t-19.5 133.5t-5.5 113.5q0 10 1 30.5t3 46.5l5 53q2 28 6 52q8 63 26.5 127t51 119t78.5 98t110 62q59 16 119 16q104 0 174.5 -43t124.5 -135q31 -49 48 -106.5t26.5 -113 t11.5 -104.5t2 -84z" />
<glyph unicode="1" d="M215 0v113h360v940l-360 -74v113l473 104v-1083h350v-113h-823z" />
<glyph unicode="2" d="M154 0v121l458 360q20 14 57 47l73 70q38 37 69 75t41 62q8 23 13 44.5t5 43.5q0 61 -24.5 109.5t-64.5 82.5t-94 52t-112 18q-43 0 -90 -11t-86 -35.5t-63.5 -61.5t-24.5 -88h-110v145q156 162 383 162q47 0 97 -11t98 -34t89 -59.5t68 -85.5q20 -37 31.5 -81t11.5 -89 q0 -61 -18.5 -112.5t-57.5 -102t-97 -104.5t-140 -120l-351 -284h553v145h111v-258h-825z" />
<glyph unicode="3" d="M967 315q0 -86 -37 -150.5t-96.5 -106.5t-133 -62.5t-145.5 -20.5q-16 0 -50 3.5t-77 9.5t-92 18t-96 31l-74 29l29 96q74 -29 161.5 -51.5t178.5 -22.5q143 0 233 64.5t90 166.5q0 43 -16.5 76t-42 56.5t-55 39t-56.5 21.5q-43 10 -87 14t-89 4h-33v113h6 q82 0 139.5 21.5t93.5 55.5t52 74t16 78q0 39 -15 77t-47 69t-80 49t-114 18q-49 0 -96 -11t-87 -26.5t-70.5 -32t-47.5 -26.5l-36 90q82 53 172 85t194 32t182 -47t115 -113q16 -31 28.5 -69.5t12.5 -89.5q0 -59 -13.5 -102.5t-36 -75t-51 -55t-59.5 -44.5q27 -6 66 -22.5 t75.5 -48t62.5 -84t26 -130.5z" />
<glyph unicode="4" d="M250 444h436v629zM461 0v113h225v219h-561v100l510 739h164v-727h192v-112h-192v-219h192v-113h-530z" />
<glyph unicode="5" d="M1024 350q0 -51 -19.5 -116.5t-69.5 -123t-136 -96.5t-217 -39q-104 0 -203.5 25t-194.5 55l23 113q86 -33 177 -56.5t187 -23.5q164 0 253 74t89 184q0 49 -20.5 96t-60 83t-98 58.5t-134.5 22.5q-12 0 -36.5 -1t-60.5 -8t-79 -23.5t-92 -45.5l-80 19v624h709v-112h-596 v-402q57 29 125.5 45.5t140.5 16.5q96 0 169.5 -31t123 -82t75 -117.5t25.5 -138.5z" />
<glyph unicode="6" d="M887 328q0 76 -37 135q-35 55 -97.5 82.5t-129.5 27.5q-49 0 -96.5 -14t-87.5 -39.5t-72.5 -59.5t-53.5 -73q4 -35 16.5 -73t22.5 -60q33 -76 103.5 -122t158.5 -46q76 0 128.5 22.5t84 57.5t46 78t14.5 84zM1004 1079q-10 2 -26 2h-32q-16 0 -31.5 -1t-27.5 -1h-27 q-4 0 -5 2t-5 2q-70 0 -143.5 -19.5t-133.5 -51.5q-125 -68 -193.5 -200t-70.5 -300q23 29 52.5 59.5t69.5 56t92 42t118 16.5q84 0 150.5 -28.5t111.5 -78t68.5 -114t23.5 -135.5q0 -78 -27.5 -142.5t-75.5 -112.5t-115.5 -75t-147.5 -27q-68 0 -142.5 26t-139 86 t-106.5 160.5t-42 248.5q0 115 21.5 207t60 164.5t92 129t116.5 99.5q78 53 171.5 77.5t197.5 24.5h146v-117z" />
<glyph unicode="7" d="M633 0h-125l401 1059h-592v-168h-110v280h823v-118z" />
<glyph unicode="8" d="M897 311q0 53 -23.5 95.5t-63.5 72t-92 45t-112 15.5q-33 0 -81 -8.5t-93 -34t-76.5 -71.5t-31.5 -122q0 -70 31.5 -111.5t77.5 -65.5t96.5 -31t86.5 -7q45 0 94.5 11.5t91.5 37t68.5 68.5t26.5 106zM860 868q0 90 -68.5 152.5t-185.5 62.5q-23 0 -64.5 -6t-82.5 -27.5 t-72 -65.5t-31 -120q0 -72 30 -112.5t70 -63t82 -29t68 -6.5q111 0 182.5 58.5t71.5 156.5zM1008 319q0 -72 -27 -134t-78 -109t-124.5 -75t-168.5 -28q-96 0 -169.5 29t-125 76t-77 107.5t-25.5 125.5q0 70 22.5 120t53 85t62.5 55l48 31q-74 39 -114.5 103.5t-40.5 160.5 q0 80 27.5 141.5t77.5 104.5t118 64.5t147 21.5q102 0 171 -31.5t110 -81t58.5 -106.5t17.5 -109q0 -63 -15.5 -108t-39 -76t-52 -50.5t-55.5 -33.5q27 -10 61.5 -30.5t65.5 -53.5t51.5 -82t20.5 -117z" />
<glyph unicode="9" d="M922 748q-2 61 -23.5 125.5t-54.5 109.5q-39 53 -100.5 76.5t-120.5 23.5t-109.5 -18t-86.5 -51t-56.5 -79t-20.5 -101t17.5 -102.5t52.5 -82.5t86 -54.5t119 -19.5q55 0 104 16.5t88 41t67 55.5t38 60zM1036 668q0 -145 -33.5 -259t-92 -197t-138.5 -135t-170 -75 q-125 -29 -237 -29h-138v117h107q10 0 20.5 -2t20.5 -2q104 0 194 25q70 18 131.5 54t109.5 96.5t78 149.5t38 214q-51 -82 -139.5 -123t-180.5 -41t-161.5 31.5t-114.5 84t-67.5 119t-22.5 135.5q0 72 27.5 138.5t77.5 117t120 80t156 29.5q74 0 143.5 -23.5t120.5 -70.5 q45 -41 73.5 -92.5t46 -108.5t24.5 -117.5t7 -115.5z" />
<glyph unicode=":" d="M770 96q0 -55 -42 -90t-97 -35q-59 0 -102.5 36t-43.5 85q0 51 42 87t100 36q41 0 68.5 -13.5t44 -32.5t23.5 -40t7 -33zM770 635q0 -55 -42 -90t-97 -35q-59 0 -102.5 36t-43.5 85q0 51 42 87t100 36q41 0 68.5 -13.5t44 -33t23.5 -40t7 -32.5z" />
<glyph unicode=";" d="M522 -264h-131l148 512h196zM797 635q0 -55 -42 -90t-98 -35q-59 0 -102 36t-43 85q0 51 42 87t99 36q41 0 69 -13.5t44 -33t23.5 -40t7.5 -32.5z" />
<glyph unicode="&#x3c;" d="M190 332v160l816 335v-114l-721 -301l721 -301v-113z" />
<glyph unicode="=" d="M174 225v111h879v-111h-879zM174 545v112h879v-112h-879z" />
<glyph unicode="&#x3e;" d="M254 0v113l721 301l-721 301v112l815 -333v-160z" />
<glyph unicode="?" d="M696 94q0 -53 -44 -86t-93 -33q-66 0 -105.5 37t-39.5 84q0 51 42 87t101 36q61 0 100 -39t39 -86zM985 852q0 -92 -37 -154.5t-93 -103.5t-121.5 -65.5t-123.5 -39.5v-120h-112v215q55 10 121.5 26.5t124 45t95.5 76.5t38 124q0 29 -12.5 68t-44.5 74.5t-87 60 t-141 24.5q-61 0 -120.5 -15t-113.5 -40v-127h-110v225q72 29 159 49.5t179 20.5q113 0 212 -46t150 -144q16 -33 26.5 -73t10.5 -81z" />
<glyph unicode="@" d="M729 621q0 12 -3 32.5t-13.5 40t-27.5 32.5t-46 13q-39 0 -74 -34.5t-62.5 -85t-44 -106.5t-16.5 -97q0 -16 3.5 -38t12.5 -40.5t25.5 -31.5t42.5 -13q45 0 82 32.5t63.5 82t42 107t15.5 106.5zM1157 608q0 -82 -20.5 -153.5t-56.5 -123.5t-87 -82t-112 -30 q-72 0 -116 42t-52 87q-29 -51 -81 -90t-116 -39q-35 0 -59.5 12.5t-40.5 32.5q-29 33 -38 74t-9 82q0 74 25.5 145.5t65.5 127t90 89t99 33.5q10 0 26.5 -2t34 -13.5t36 -34t30.5 -65.5l29 103h76l-72 -258l-21 -69q-10 -36 -10 -70q0 -53 34 -83t75 -30q39 0 73.5 24.5 t61.5 67.5t43 102.5t16 126.5q0 109 -36.5 189t-99 132t-143.5 76.5t-169 24.5q-133 0 -225.5 -47t-148.5 -120.5t-80.5 -163t-24.5 -173.5q0 -74 17 -148.5t52 -131.5q61 -104 158.5 -154.5t214.5 -50.5q102 0 212 31t245 108l30 -73q-100 -59 -226 -100.5t-255 -41.5 q-145 0 -244.5 52.5t-161 134.5t-89 181t-27.5 193q0 123 37 228.5t108.5 184.5t176 123t241.5 44q115 0 219.5 -40t177.5 -128q53 -63 85 -140t32 -196z" />
<glyph unicode="A" d="M612 1092l-243 -633h501zM807 0v113h201l-93 233h-591l-88 -233h186v-113h-434v113h127l374 946h-292v112h501l426 -1058h111v-113h-428z" />
<glyph unicode="B" d="M1008 305q0 47 -21.5 87t-58.5 63q-59 37 -129 51t-142 14h-299v-407h314q66 0 123 5t114 32q49 23 74 65.5t25 89.5zM930 856q0 78 -52.5 131t-123.5 62q-68 8 -121 9t-96 1h-179v-424h248q72 0 138.5 10t119.5 55q33 29 49.5 70t16.5 86zM1120 307q0 -113 -71 -196 q-57 -68 -143.5 -89.5t-180.5 -21.5h-639v113h160v946h-160v112h524q57 0 116.5 -4t113 -20.5t96.5 -49t70 -89.5q16 -35 26 -76t10 -84q0 -45 -12 -91t-37 -83q-12 -16 -28.5 -31.5t-35 -28t-34.5 -20.5t-27 -14q49 -10 94.5 -31t81 -54.5t56 -81t20.5 -106.5z" />
<glyph unicode="C" d="M1141 125q-94 -70 -208 -111t-237 -41q-141 0 -245.5 51.5t-175 139.5t-105.5 202.5t-35 241.5q0 117 38 223.5t108.5 187.5t169 129t219.5 48q162 0 295 -86l61 -39v125h111v-436h-111v166q-68 72 -156 115.5t-186 43.5q-57 0 -132 -22.5t-142.5 -78.5t-113.5 -150.5 t-46 -235.5q0 -121 34.5 -216t96 -160.5t145.5 -100.5t181 -35q104 0 203.5 38t181.5 97z" />
<glyph unicode="D" d="M1030 596q0 135 -37 230.5t-86 138.5q-39 33 -74.5 52t-77.5 28.5t-93.5 11.5t-118.5 2h-203v-946h225q57 0 112.5 6t107 23.5t93.5 48t70 79.5q41 70 61.5 154t20.5 172zM1143 612q0 -141 -29 -245.5t-79 -177t-118.5 -114.5t-150.5 -57q-61 -10 -126 -14t-132 -4h-438 v113h159v946h-159v112h495q55 0 105.5 -2t97.5 -12q80 -18 148.5 -58t118.5 -105.5t79 -161t29 -220.5z" />
<glyph unicode="E" d="M117 0v113h162v946h-166v112h981v-391h-113v279h-592v-418h328v152h112v-414h-112v149h-328v-415h604v278h113v-391h-989z" />
<glyph unicode="F" d="M1022 782v277h-596v-418h330v152h112v-414h-112v149h-330v-415h268v-113h-536v113h155v946h-157v112h979v-389h-113z" />
<glyph unicode="G" d="M1081 424v-354q-98 -41 -206.5 -68t-221.5 -27q-158 0 -267.5 54.5t-180 141.5t-102 195.5t-31.5 217.5q0 125 39 236.5t107.5 194.5t163.5 132t210 49q104 0 203.5 -36t173.5 -99v135h112v-436h-112v153q-68 74 -159 122t-196 48q-76 0 -152.5 -27.5t-138 -88 t-100.5 -155.5t-39 -230q0 -96 27 -185.5t83 -158t144 -109.5t213 -41q43 0 79 4t73 13.5t77 21.5l89 29v268h-312v113h529v-113h-105z" />
<glyph unicode="H" d="M735 0v113h160v405h-561v-405h162v-113h-435v113h162v946h-162v112h435v-112h-162v-428h561v428h-160v112h430v-112h-159v-946h159v-113h-430z" />
<glyph unicode="I" d="M223 0v113h336v946h-336v112h783v-112h-334v-946h334v-113h-783z" />
<glyph unicode="J" d="M920 1059v-735q0 -63 -14.5 -126t-53.5 -112t-107.5 -80t-177.5 -31q-102 0 -201.5 28t-187.5 65l-74 30v461h113v-207q0 -94 45 -147t103.5 -80t114 -33t75.5 -6q45 0 87 10t77 33q63 43 77.5 112.5t14.5 141.5v676h-405v112h776v-112h-262z" />
<glyph unicode="K" d="M950 0q-129 279 -309 510l-72 92l-170 -170v-319h164v-113h-438v113h164v946h-164v112h436v-112h-162v-490l492 490h-121v112h410v-112h-150l-385 -389l25 -30q14 -17 26 -34q14 -20 31 -39q82 -102 160 -223t131 -231h235v-113h-303z" />
<glyph unicode="L" d="M106 0v113h218v946h-218v112h586v-112h-256v-946h586v413h113v-526h-1029z" />
<glyph unicode="M" d="M854 0v113h119v946h-23l-293 -770h-86l-299 770h-18v-946h125v-113h-336v113h98v946h-98v112h303l270 -696l267 696h297v-112h-95v-946h97v-113h-328z" />
<glyph unicode="N" d="M1044 1059v-1059h-149l-588 1012v-899h221v-113h-497v113h164v946h-166v112h319l584 -1017v905h-219v112h487v-112h-156z" />
<glyph unicode="O" d="M1034 584q0 59 -17.5 145t-63.5 165t-127 135t-210 56q-117 0 -197.5 -53t-130.5 -130t-72.5 -164t-22.5 -154q0 -98 29.5 -187.5t84.5 -158t134 -109.5t180 -41q100 0 178 41t130 109.5t78.5 158t26.5 187.5zM1147 588q0 -127 -36 -237.5t-103.5 -194.5t-166 -132.5 t-223.5 -48.5q-121 0 -220 48.5t-169.5 132.5t-109.5 194.5t-39 237.5q0 109 33.5 217t101.5 196.5t169 142.5t237 54q104 0 185 -31.5t139.5 -84t97 -118t62 -133t33 -132t9.5 -111.5z" />
<glyph unicode="P" d="M1020 793q0 35 -8 71.5t-25 65.5q-47 76 -119.5 102.5t-156.5 26.5h-269v-529h232q43 0 88 3.5t86 15.5t74.5 34.5t58.5 63.5q39 66 39 146zM1133 793q0 -63 -17.5 -124t-52.5 -108q-61 -86 -156.5 -114.5t-195.5 -28.5h-269v-305h314v-113h-586v113h160v946h-160v112 h549q117 0 195.5 -33.5t128 -88t70 -121.5t20.5 -135z" />
<glyph unicode="Q" d="M1042 571q0 74 -12 144.5t-43 130.5q-35 68 -80 113t-94 72.5t-98 39.5t-92 12q-90 0 -190.5 -55t-166.5 -174q-31 -55 -48 -126t-17 -157q0 -141 39 -234t99 -148.5t133 -78t142 -22.5q55 0 129 18.5t140.5 70.5t112.5 146t46 248zM1155 573q0 -145 -39 -255.5 t-108.5 -187.5t-164.5 -116t-208 -39h-33q-18 -16 -36.5 -28.5t-41.5 -22.5q23 4 46.5 9.5t45.5 5.5q72 0 135 -25l123 -49q14 -6 29 -8t31 -2q41 0 79 13t70 36l45 -90q-41 -35 -93 -53.5t-107 -18.5q-45 0 -84 12q-63 20 -125 47t-133 27q-72 0 -128.5 -21.5t-125.5 -58.5 l-31 92q53 27 98 66t86 80l-57 16q-76 20 -138.5 71.5t-107.5 126t-70.5 169t-25.5 204.5q0 104 21.5 190.5t62.5 158.5q37 63 86 114t108.5 87t125 54.5t135.5 18.5q82 0 151.5 -22.5t125.5 -60.5t98 -86t71 -99q41 -78 62.5 -168.5t21.5 -186.5z" />
<glyph unicode="R" d="M918 846q0 33 -8.5 61.5t-22.5 55.5q-16 33 -43 52t-58.5 28.5t-66.5 12.5t-68 3h-291v-449h205q45 0 106.5 5.5t116 28t92.5 70.5t38 132zM924 0q-29 53 -74 124l-92 141l-92 133l-74 100h-232v-385h162v-113h-434v113h162v946h-162v112h600q92 0 156.5 -25.5 t105.5 -69.5t59.5 -102.5t18.5 -123.5q0 -90 -30.5 -152.5t-77 -103.5t-101.5 -62.5t-104 -29.5q31 -37 66 -87l72 -104l70 -104q34 -51 58 -94h207v-113h-264z" />
<glyph unicode="S" d="M1071 326q0 -90 -35 -156t-95 -109t-138 -64.5t-164 -21.5q-35 0 -81 4.5t-96 15.5t-102.5 31.5t-99.5 53.5v-82h-113v369h113v-160q76 -61 169 -90t192 -29q160 0 248.5 59.5t88.5 159.5q0 33 -8 62.5t-30 50.5q-51 43 -116 57.5t-134 21.5l-141 14q-71 7 -132 34 q-14 6 -46 22.5t-65.5 49t-59 82t-25.5 122.5q0 63 24.5 130t76.5 121t131 88t190 34q80 0 157.5 -21.5t137.5 -64.5v61h110v-378h-110v182q-55 53 -132 80.5t-157 27.5q-70 0 -128.5 -18t-100.5 -49t-65.5 -74t-23.5 -92q0 -74 36 -117t102 -71q53 -23 113.5 -32 t121.5 -15.5t121.5 -15.5t114.5 -34q63 -29 107 -91t44 -148z" />
<glyph unicode="T" d="M1038 760v299h-358v-946h252v-113h-617v113h252v946h-358v-299h-113v411h1055v-411h-113z" />
<glyph unicode="U" d="M1067 1059v-653q0 -98 -27.5 -186.5t-91.5 -143.5q-59 -53 -145 -77t-164 -24q-84 0 -166 21.5t-143 71.5q-45 37 -71 82t-38 96t-15 107.5t-3 111.5v594h-166v112h500v-112h-224v-615q0 -41 4.5 -83t16.5 -80.5t33.5 -73.5t56.5 -60q45 -33 100.5 -46t112.5 -13 q61 0 119.5 14.5t102.5 51t70.5 98t26.5 156.5v651h-217v112h490v-112h-162z" />
<glyph unicode="V" d="M1102 1059l-383 -1059h-164l-391 1059h-144v112h451v-112h-188l354 -959l346 959h-192v112h436v-112h-125z" />
<glyph unicode="W" d="M1098 1059l-115 -1059h-125l-242 721l-231 -721h-131l-119 1059h-94v112h408v-112h-201l92 -856l238 727h81l242 -723l84 852h-205v112h410v-112h-92z" />
<glyph unicode="X" d="M735 0v113h172l-297 411l-303 -411h193v-113h-455v113h133l365 501l-322 445h-135v112h418v-112h-154l258 -357l260 357h-127v112h385v-112h-131l-321 -445l360 -501h131v-113h-430z" />
<glyph unicode="Y" d="M1040 1059l-354 -604v-342h252v-113h-619v113h254v342l-362 604h-139v112h405v-112h-143l295 -492l291 492h-142v112h400v-112h-138z" />
<glyph unicode="Z" d="M168 0v111l754 948h-578v-301h-111v413h842v-106l-756 -952h646v331h112v-444h-909z" />
<glyph unicode="[" d="M633 -199v1526h371v-113h-259v-1300h259v-113h-371z" />
<glyph unicode="\" d="M936 -291l-748 1686l95 41l747 -1686z" />
<glyph unicode="]" d="M229 -199v113h258v1300h-258v113h371v-1526h-371z" />
<glyph unicode="^" d="M1026 995q-117 41 -218 107.5t-192 159.5q-86 -86 -190 -157t-221 -112v94q72 55 127 105.5t97 103t75 110.5t57 130h105q29 -76 61.5 -133t74.5 -107.5t96 -99.5t128 -106v-95z" />
<glyph unicode="_" d="M0 -510v104h1229v-104h-1229z" />
<glyph unicode="`" d="M915 1004l-589 204l69 158l543 -299z" />
<glyph unicode="a" d="M852 410q-66 10 -130.5 18t-131.5 8q-72 0 -148.5 -8t-134.5 -49q-31 -23 -52.5 -55.5t-21.5 -73.5q0 -29 15.5 -58.5t44.5 -52t67.5 -37t85.5 -14.5q125 0 226.5 63.5t179.5 155.5v103zM854 0v172q-86 -82 -189.5 -139.5t-220.5 -57.5q-78 0 -139 25t-102 63.5t-62.5 89 t-21.5 99.5q0 45 22.5 97t73.5 97.5t136 75t212 29.5q74 0 147.5 -9.5t141.5 -19.5v64q0 51 -13.5 99t-54.5 73q-45 29 -94 36t-102 7t-105.5 -9.5t-98.5 -22.5t-84 -27.5t-62 -26.5l-29 110q90 37 192.5 63.5t206.5 26.5q131 0 209 -40.5t111 -100.5q23 -41 29 -84t6 -84 v-493h167v-113h-276z" />
<glyph unicode="b" d="M1026 444q0 61 -20.5 126t-62.5 116t-105.5 84t-151.5 33q-66 0 -128 -24.5t-111.5 -70.5t-80 -112t-30.5 -145q0 -94 31.5 -163t83 -113t113 -65.5t122.5 -21.5q66 0 127 26.5t108.5 74t76 112.5t28.5 143zM1139 444q0 -84 -31 -167.5t-88 -150.5t-139 -109t-183 -42 q-96 0 -161.5 21.5t-108.5 49.5t-66 55l-32 40v-141h-281v113h170v1058h-170v113h281v-547q12 18 40.5 49t75 59.5t108.5 49t144 20.5q78 0 157 -30.5t141.5 -90t102.5 -147.5t40 -203z" />
<glyph unicode="c" d="M1090 137q-92 -72 -203 -117t-254 -45q-96 0 -184.5 33t-155 94.5t-106.5 150.5t-40 204q0 70 28 150.5t87.5 149t153.5 113.5t227 45q90 0 165 -25.5t146 -72.5v98h113v-358h-113v141q-66 55 -145.5 79t-167.5 24t-158.5 -29t-120 -78t-76 -112.5t-26.5 -130.5 q0 -49 18.5 -113t65.5 -120t125 -94t199 -38q61 0 120.5 19.5t110.5 46t89 54t56 44.5z" />
<glyph unicode="d" d="M909 455q0 53 -15 113.5t-54 112.5t-105.5 87t-171.5 35q-78 0 -141.5 -30t-108.5 -79t-70.5 -113.5t-25.5 -134.5q0 -68 22.5 -131t66.5 -114t108.5 -82t148.5 -31q76 0 140.5 26.5t109.5 75t70.5 116t25.5 149.5zM920 0v156q-59 -90 -153.5 -135.5t-205.5 -45.5 q-113 0 -197.5 40t-142 106.5t-87.5 150.5t-30 174q0 98 34 184.5t95.5 150t146.5 99t189 35.5q41 0 87 -7t92.5 -25.5t90.5 -49t81 -77.5v415h-279v113h389v-1171h164v-113h-274z" />
<glyph unicode="e" d="M965 543q0 18 -14.5 61t-53.5 87t-105.5 77t-173.5 33q-86 0 -152.5 -23.5t-112.5 -60.5t-71.5 -83t-31.5 -91h715zM1098 104q-100 -55 -222 -92t-247 -37q-135 0 -229.5 39t-155 104.5t-88 150.5t-27.5 175q0 106 38 193.5t104.5 149t155.5 95t191 33.5 q123 0 212.5 -39.5t145.5 -106.5t82.5 -155t26.5 -184h-839v-16q0 -41 10 -81t28.5 -76t43 -63.5t53.5 -46.5q59 -37 126.5 -49t139.5 -12t183.5 29.5t232.5 97.5z" />
<glyph unicode="f" d="M1032 1145q-55 10 -130 17t-134 7q-88 0 -135 -14t-69.5 -37.5t-27 -55.5t-4.5 -67v-106h443v-113h-443v-663h443v-113h-774v113h217v663h-217v113h217v106q0 29 1 60.5t7 54.5q14 63 58 98t96.5 51.5t103.5 19.5t80 3q31 0 72 -3t83 -7l80 -8q39 -4 64 -9z" />
<glyph unicode="g" d="M913 494q0 43 -16 96t-56 100t-111 80t-177 33q-74 0 -140.5 -22.5t-117.5 -64.5t-81 -99.5t-30 -127.5q0 -61 28 -117.5t77 -97.5t115.5 -65.5t144.5 -24.5q76 0 142.5 23.5t115.5 64.5t77.5 98.5t28.5 123.5zM1030 776v-835q0 -168 -111.5 -253t-304.5 -85 q-63 0 -126.5 6t-122 15t-110.5 19.5t-91 20.5l22 111l181 -40q98 -22 202 -22q184 0 267.5 54.5t83.5 197.5v256q-63 -76 -167 -112.5t-206 -36.5q-121 0 -211 36.5t-148.5 97t-87 135.5t-28.5 148q0 74 30.5 150t90 137.5t149.5 100t207 38.5q123 0 220 -43t151 -102v119 h237v-113h-127z" />
<glyph unicode="h" d="M745 0v113h168v475q0 43 -7 82t-28.5 68.5t-60.5 47t-102 17.5q-49 0 -97.5 -15.5t-93.5 -41t-86 -57.5t-78 -64v-512h170v-113h-450v113h170v1058h-174v113h284v-536q78 70 176.5 118.5t206.5 48.5q88 0 143.5 -25.5t86.5 -66.5t41 -91t10 -99v-520h168v-113h-447z" />
<glyph unicode="i" d="M209 0v113h360v663h-311v113h424v-776h354v-113h-827zM537 1087v252h145v-252h-145z" />
<glyph unicode="j" d="M815 -37q0 -127 -42 -203.5t-136 -121.5q-35 -16 -83 -24.5t-89 -8.5q-76 0 -146.5 7t-144.5 23l16 109q53 -10 121 -19.5t133 -9.5h19q27 0 60.5 3t66.5 19.5t61.5 50.5t42.5 95q6 23 7 55.5t1 55.5v782h-528v113h641v-926zM629 1087v252h145v-252h-145z" />
<glyph unicode="k" d="M727 0v113h113q-37 47 -85 99l-98 101l-93 90q-44 41 -75 66l-116 -86v-383h-281v113h170v1058h-174v113h285v-788l360 280h-94v113h442v-113h-196l-318 -250l150 -139q66 -61 129 -132l123 -142h192v-113h-434z" />
<glyph unicode="l" d="M199 0v113h358v1058h-348v113h461v-1171h356v-113h-827z" />
<glyph unicode="m" d="M1010 0v584q0 59 -8.5 113.5t-59.5 88.5q-25 16 -63 17q-43 0 -77 -21.5t-58.5 -48t-40 -51.5t-17.5 -33v-536h107v-113h-220v625q0 8 -3 36.5t-17 59.5t-42 55.5t-79 24.5q-35 0 -61.5 -12.5t-48 -31t-40 -41t-32.5 -44.5v-559h104v-113h-217v776h-106v113h219v-92 q43 47 92 82.5t117 35.5q78 0 129 -44t74 -101q43 55 103 100t138 45q31 0 58.5 -6t56.5 -22q59 -37 81.5 -104.5t22.5 -133.5v-536h107v-113h-219z" />
<glyph unicode="n" d="M733 0v113h168v522q0 53 -19.5 86t-49 51.5t-65.5 24.5t-69 6q-94 0 -189 -48t-161 -120v-522h170v-113h-450v113h170v661h-170v115h280v-129q78 72 177.5 113.5t205.5 41.5q74 0 123 -17t82 -44q47 -39 61.5 -99.5t14.5 -117.5v-524h168v-113h-447z" />
<glyph unicode="o" d="M1022 442q0 41 -16.5 102.5t-60.5 119t-122 98.5t-200 41q-96 0 -171 -30t-126.5 -79t-79 -114.5t-27.5 -137.5q0 -61 24.5 -124.5t75 -114.5t126 -83t180.5 -32q88 0 160.5 26.5t125 74t82 111.5t29.5 142zM1135 444q0 -100 -36 -186t-101.5 -148.5t-160 -98.5 t-210.5 -36q-121 0 -217.5 35t-164 97.5t-103.5 148.5t-36 188q0 111 40 198t111 147.5t165 93t203 32.5q147 0 245.5 -48t156.5 -119.5t83 -153.5t25 -150z" />
<glyph unicode="p" d="M1014 451q0 45 -15.5 105t-53.5 115.5t-103.5 93.5t-165.5 38q-84 0 -149.5 -29t-110.5 -78t-69.5 -113.5t-24.5 -133.5q0 -80 27.5 -146.5t75.5 -115t111.5 -74t135.5 -25.5q63 0 124.5 24.5t109.5 71.5t78 114t30 153zM1126 453q0 -104 -34.5 -191.5t-95 -151 t-142.5 -99.5t-176 -36q-139 0 -227.5 52.5t-135.5 113.5v-426h314v-112h-594v112h170v1061h-170v113h280v-144q55 72 147.5 121t225.5 49q119 0 224.5 -59t166.5 -188q47 -98 47 -215z" />
<glyph unicode="q" d="M911 449q0 72 -25.5 136t-71.5 112t-113.5 77t-149.5 29q-100 0 -166 -38t-103.5 -93.5t-53 -115.5t-15.5 -105q0 -86 29.5 -153t78 -114t110 -71.5t124.5 -24.5t126.5 23.5t115 69.5t83 113t31.5 155zM598 -397v112h313v428q-72 -88 -169 -128t-193 -40q-94 0 -176 36 t-142.5 99.5t-95.5 150.5t-35 192q0 117 47 215q61 127 171 187t229 60q127 0 222 -50t142 -115v139h281v-113h-170v-1061h170v-112h-594z" />
<glyph unicode="r" d="M1053 723q-10 53 -42 67.5t-71 14.5q-41 0 -80 -14.5t-87 -46t-109.5 -86t-143.5 -134.5v-411h398v-113h-766v113h256v663h-256v113h368v-238l100 89q50 46 105 85t116.5 64.5t135.5 25.5q47 0 86 -15t63 -54q16 -27 24.5 -54.5t12.5 -58.5z" />
<glyph unicode="s" d="M1057 268q0 -66 -29 -120t-81 -93t-122.5 -59.5t-156.5 -20.5q-61 0 -111.5 8.5t-94.5 20.5t-83 28.5t-76 35.5v-93h-113v349h113v-121q150 -115 340 -115q29 0 79 5t99 22.5t86 50.5t37 90q0 10 -3 29.5t-11 29.5q-20 29 -50 43.5t-64 19.5t-69.5 5t-68.5 4 q-57 4 -114.5 7t-111 12.5t-102.5 28t-90 54.5q-29 27 -41 65t-12 77q0 133 101.5 208.5t271.5 75.5q86 0 166.5 -20.5t150.5 -60.5v81h111v-323h-111v121q-66 41 -145.5 65.5t-165.5 24.5q-33 0 -79 -6t-88 -23.5t-72 -47.5t-30 -77q0 -29 15.5 -53.5t38.5 -40.5 q35 -23 86 -34t108.5 -16t116.5 -7t113 -6q53 -4 100 -15.5t83 -36t57.5 -67t21.5 -105.5z" />
<glyph unicode="t" d="M1055 90q-98 -41 -209 -78t-225 -37q-41 0 -96.5 9.5t-107.5 38t-88 82t-36 139.5v532h-146v113h146v264h110v-264h529v-113h-529v-483q0 -47 15.5 -96.5t60.5 -71.5q41 -23 82 -30t82 -7q51 0 105.5 12.5t106.5 28.5t99 36l88 36z" />
<glyph unicode="u" d="M887 0v137q-59 -55 -108.5 -88t-91.5 -49t-77 -20.5t-65 -4.5q-61 0 -119.5 15.5t-106.5 52.5q-53 41 -74.5 100.5t-21.5 122.5v510h-170v113h281v-567q0 -55 14 -106.5t62 -86.5q33 -23 74.5 -33t82.5 -10q98 0 178 57.5t142 135.5v497h-170v113h280v-776h168v-113h-278 z" />
<glyph unicode="v" d="M1038 776l-350 -776h-131l-350 776h-176v113h446v-113h-151l297 -665l297 665h-150v113h430v-113h-162z" />
<glyph unicode="w" d="M1135 776l-215 -776h-125l-162 514l-162 -514h-129l-221 776h-70v113h334v-113h-149l176 -616l172 557h96l176 -561l172 620h-145v113h323v-113h-71z" />
<glyph unicode="x" d="M762 0v113h127l-275 282l-278 -282h131v-113h-422v113h152l348 356l-301 307h-162v113h403v-113h-102l229 -235l228 235h-84v113h381v-113h-158l-297 -309l348 -354h156v-113h-424z" />
<glyph unicode="y" d="M1079 776l-598 -1061h174v-112h-520v112h223l199 338l-377 723h-137v113h391v-113h-131l313 -612l340 612h-114v113h366v-113h-129z" />
<glyph unicode="z" d="M211 0v106l663 670h-526v-182h-110v295h798v-105l-667 -671h555v188h112v-301h-825z" />
<glyph unicode="{" d="M860 -471q-37 2 -77 8t-76.5 19.5t-67.5 38t-49 61.5q-23 45 -30 93t-7 99v246q0 100 -8 166t-28.5 109t-56.5 70.5t-91 54.5v106q55 27 90 54.5t56.5 70.5t29.5 108.5t8 165.5v246q0 51 7 99.5t30 93.5q18 37 49 61.5t67.5 37.5t76.5 19.5t77 8.5v-113q-43 -4 -79 -12 t-61.5 -27.5t-39.5 -51.5t-14 -83v-356q0 -37 -3.5 -84t-17.5 -97.5t-47 -100.5t-90 -93q57 -39 90 -89t47 -103.5t17.5 -103.5t3.5 -87v-348q0 -51 14 -83t39.5 -51.5t61.5 -28.5t79 -11v-113z" />
<glyph unicode="|" d="M563 -510v2046h105v-2046h-105z" />
<glyph unicode="}" d="M860 494q-55 -27 -91 -54.5t-56.5 -70.5t-28.5 -108.5t-8 -166.5v-246q0 -51 -7 -99t-30 -93q-18 -37 -49 -61.5t-68 -38t-76.5 -19.5t-76.5 -8v113q43 2 78.5 11t61.5 28.5t40 51t14 83.5v348q0 37 3 87t17.5 103.5t46.5 103.5t91 89q-59 43 -91 93t-46.5 100.5 t-17.5 97.5t-3 84v356q0 51 -14 83t-40 51.5t-61.5 27.5t-78.5 12v113q37 -2 76.5 -8.5t76.5 -19.5t68 -37.5t49 -61.5q23 -45 30 -93.5t7 -99.5v-246q0 -100 8 -165.5t29.5 -108.5t56.5 -70.5t90 -54.5v-106z" />
<glyph unicode="~" d="M1075 487q-23 -37 -50.5 -71.5t-59 -62t-70.5 -44t-84 -16.5q-37 0 -90 22.5t-107 49.5q-53 29 -102 50t-78 21q-27 0 -48 -12t-38.5 -30.5t-34.5 -42.5l-30 -44l-97 76l54 62q25 30 51 52.5t59 36t78 13.5q66 0 114 -19.5t105 -50.5q51 -29 94 -50t72 -21q27 0 51.5 18 t45 43t36.5 51l27 43z" />
<glyph unicode="&#xa0;" />
<glyph unicode="&#xa1;" d="M549 -270l33 800h90l37 -800h-160zM768 801q0 -47 -40 -85t-105 -38q-49 0 -92.5 36t-43.5 85q0 51 39 88t101 37q59 0 100 -38t41 -85z" />
<glyph unicode="&#xa2;" d="M1034 319q-82 -53 -169 -92t-191 -43v-293h-113v293q-66 4 -128 32t-111.5 77t-79 119.5t-29.5 160.5q0 94 33 166t84 121t112.5 75t118.5 32v290h113v-288q59 -6 113.5 -24.5t107.5 -41.5v84h111v-313h-111v104q-53 35 -120.5 55.5t-137.5 20.5q-74 0 -132.5 -23.5 t-98 -63.5t-61 -91t-21.5 -107q0 -39 16 -86t53 -89t98.5 -69.5t153.5 -27.5q98 0 188.5 34t170.5 85z" />
<glyph unicode="&#xa3;" d="M1065 61q-47 -41 -106.5 -64.5t-124.5 -23.5q-23 0 -44.5 5.5t-44.5 9.5q-53 12 -107 28.5t-110 16.5q-12 0 -36.5 -3t-57.5 -10.5t-70.5 -18.5t-72.5 -28l-51 101q74 66 117.5 148.5t43.5 183.5q0 12 -1 22t-3 24.5t-6 35.5l-10 57h-219v112h186l-33 112q-16 58 -16 118 q0 61 28.5 116.5t79 98.5t120 68.5t149.5 25.5q70 0 126 -19.5t101 -50t78 -69.5t53 -80l-100 -31q-39 72 -110.5 104.5t-149.5 32.5q-39 0 -85 -11t-86 -37.5t-66.5 -70.5t-26.5 -112q0 -49 13 -98t28 -97h458v-112h-422q10 -35 18.5 -76t8.5 -82q0 -18 -5 -51t-20.5 -73 t-44 -83t-73.5 -84h6q45 23 93 36t99 13q45 0 93 -12q47 -12 95 -29.5t97 -17.5q53 0 97 23.5t71 40.5z" />
<glyph unicode="&#xa4;" d="M956 735q0 66 -24.5 128.5t-69.5 110.5t-107.5 76.5t-138.5 28.5q-80 0 -144 -29.5t-108.5 -78.5t-69 -110.5t-24.5 -125.5q0 -74 28 -136t74 -109.5t108.5 -74t133.5 -26.5q66 0 127.5 24.5t109.5 69.5t76.5 108.5t28.5 143.5zM1034 250l-133 135q-61 -47 -135 -71.5 t-154 -24.5q-51 0 -122.5 15t-157.5 81l-139 -135l-64 61l139 138q-49 59 -73.5 134.5t-24.5 155.5q0 66 19.5 135.5t76.5 141.5l-141 135l65 68l136 -138q59 47 136 73t156 26q78 0 150 -23.5t131 -73.5l133 136l66 -64l-137 -137q49 -57 71.5 -129t22.5 -150t-23.5 -152.5 t-70.5 -135.5l137 -138z" />
<glyph unicode="&#xa5;" d="M1018 1059l-324 -416h248v-113h-264v-122h264v-113h-264v-182h219v-113h-553v113h221v182h-264v113h264v122h-264v113h240l-326 416h-162v112h418v-112h-135l280 -359l283 359h-137v112h416v-112h-160z" />
<glyph unicode="&#xa6;" d="M563 -459v918h105v-918h-105zM563 565v918h105v-918h-105z" />
<glyph unicode="&#xa7;" d="M897 414q0 35 -24.5 62.5t-51.5 47.5l-327 240q-20 0 -45 -9.5t-46.5 -25.5t-36 -39.5t-14.5 -52.5q0 -35 21.5 -59.5t44.5 -42.5l317 -242q51 0 84 14.5t49.5 34.5t22.5 40t6 32zM1001 422q0 -18 -3 -48t-20 -61.5t-55 -60.5t-108 -43q4 -6 12 -12l17 -13q8 -8 18 -14 q35 -29 58.5 -71t23.5 -87q0 -35 -11 -60.5t-29.5 -44t-40 -28.5t-42.5 -14q-33 -6 -73.5 -8t-81.5 -2h-410v297h111v-185h389q25 0 40 7.5t23 17.5t11.5 21.5t3.5 19.5q0 16 -10.5 39.5t-55.5 58.5l-436 334q-39 29 -64.5 75t-25.5 99q0 45 17 81t43 61.5t54.5 41 t53.5 21.5l-41 37q-35 31 -61.5 66.5t-26.5 84.5q0 47 25.5 86t70.5 56q47 16 99 19t106 3h374v-297h-110v184h-340q-16 0 -35.5 -2t-37 -10t-30 -21.5t-12.5 -37.5q0 -16 14.5 -32.5t49.5 -45.5l440 -338q41 -33 73.5 -75t32.5 -97v-2z" />
<glyph unicode="&#xa8;" d="M371 1061v254h174v-254h-174zM674 1061v254h170v-254h-170z" />
<glyph unicode="&#xa9;" d="M838 868q-80 -84 -199 -84q-49 0 -96 19.5t-85 56.5t-60.5 88t-22.5 113q0 55 19.5 104t54 86t84 59.5t108.5 22.5q55 0 97 -18.5t93 -57.5l-61 -63q-25 29 -59.5 47.5t-73.5 18.5q-35 0 -68.5 -14.5t-60.5 -41t-43 -64.5t-16 -83q0 -41 14 -77t38.5 -62.5t59.5 -43 t76 -16.5q78 0 141 70zM1020 1047q0 82 -31 156.5t-85 130t-126.5 88t-156.5 32.5q-92 0 -168 -35t-130.5 -92t-83 -131t-28.5 -154q0 -86 32.5 -159.5t89 -129t130.5 -86t153 -30.5q84 0 158 31.5t128 87t86 130.5t32 161zM1092 1051q0 -106 -38 -195.5t-102.5 -154 t-150.5 -101.5t-183 -37q-98 0 -186 38t-153.5 102.5t-103.5 151.5t-38 185q0 111 41 200t107.5 152.5t153.5 98.5t179 35q94 0 180.5 -36t151 -100.5t103.5 -151.5t39 -187z" />
<glyph unicode="&#xaa;" d="M700 897q-25 2 -49 6q-23 2 -49.5 4t-54.5 2q-70 0 -105.5 -16t-35.5 -45t26.5 -42t67.5 -13q59 0 111 27.5t89 76.5zM702 717v78q-43 -37 -96 -63.5t-112 -26.5q-82 0 -128.5 45t-46.5 98q0 18 9.5 44t36 49.5t73.5 38.5t123 15q35 0 71 -4l68 -8v21q0 18 -4 37.5 t-17 35t-40 24.5t-72 9q-47 0 -95 -14.5t-89 -30.5l-21 86q51 16 109.5 30.5t118.5 14.5q33 0 64.5 -5t58.5 -17q53 -23 64 -63t11 -93v-215h99v-86h-185z" />
<glyph unicode="&#xab;" d="M670 61l-496 394l496 393l35 -98l-379 -295l379 -295zM1022 61l-496 394l496 393l35 -98l-377 -295l377 -295z" />
<glyph unicode="&#xac;" d="M942 193v382h-766v113h879v-495h-113z" />
<glyph unicode="&#xad;" d="M285 453v112h655v-112h-655z" />
<glyph unicode="&#xae;" d="M711 1163q0 29 -19.5 50.5t-73.5 21.5h-86v-145h89q35 0 62.5 13t27.5 60zM696 807l-80 207h-84v-207h-75v504h164q68 0 116.5 -32t48.5 -116q0 -43 -18 -78.5t-66 -52.5l89 -225h-95zM1020 1047q0 82 -31 156.5t-85 130t-126.5 88t-156.5 32.5q-92 0 -168 -35 t-130.5 -92t-83 -131t-28.5 -154q0 -86 32.5 -159.5t89 -129t130.5 -86t153 -30.5q84 0 158 31.5t128 87t86 130.5t32 161zM1092 1051q0 -106 -38 -195.5t-102.5 -154t-150.5 -101.5t-183 -37q-98 0 -186 38t-153.5 102.5t-103.5 151.5t-38 185q0 111 41 200t107.5 152.5 t153.5 98.5t179 35q94 0 180.5 -36t151 -100.5t103.5 -151.5t39 -187z" />
<glyph unicode="&#xaf;" d="M166 1116v107h893v-107h-893z" />
<glyph unicode="&#xb0;" d="M815 874q0 20 -9 55.5t-31.5 69t-63.5 59t-103 25.5q-53 0 -93 -20.5t-66.5 -51t-39 -67.5t-12.5 -70q0 -39 15.5 -75.5t42 -66.5t64.5 -48t85 -18q43 0 81 16t67.5 44t46 65.5t16.5 82.5zM924 879q0 -74 -26 -133.5t-70 -102.5t-102 -66.5t-122 -23.5q-68 0 -126 25.5 t-101 69.5t-66.5 102.5t-23.5 123.5q0 66 24.5 124.5t67.5 102.5t101.5 69.5t127.5 25.5q82 0 142.5 -31.5t98.5 -79t56.5 -102.5t18.5 -104z" />
<glyph unicode="&#xb1;" d="M176 -219v113h879v-113h-879zM672 389v-385h-113v385h-383v113h383v385h113v-385h383v-113h-383z" />
<glyph unicode="&#xb2;" d="M377 498v96l264 205q39 29 75 69.5t36 94.5q0 47 -35 84.5t-94 37.5q-43 0 -82 -26.5t-39 -73.5q0 -12 2 -18h-101v118q41 47 98.5 74t121.5 27q57 0 100 -17.5t71.5 -47t43 -67.5t14.5 -77q0 -49 -17.5 -90t-56.5 -83t-98 -91t-145 -113h317v-102h-475z" />
<glyph unicode="&#xb3;" d="M850 688q0 -49 -20.5 -87t-54.5 -63.5t-78 -40t-89 -14.5q-59 0 -122.5 17.5t-106.5 40.5l29 104q43 -25 93 -42t101 -17q82 0 115 34.5t33 67.5q0 31 -17.5 50.5t-43 28.5t-56.5 12t-58 3h-28v101h12q78 0 115 29.5t37 74.5q0 47 -37 72.5t-80 25.5q-47 0 -88 -22.5 t-78 -48.5l-39 96q47 31 103.5 53.5t115.5 22.5q41 0 72 -10.5t55 -26.5q39 -27 58.5 -72t19.5 -92t-15.5 -79t-45.5 -58q41 -20 69.5 -52t28.5 -108z" />
<glyph unicode="&#xb4;" d="M369 1004l-25 63l545 297l67 -156z" />
<glyph unicode="&#xb5;" d="M891 0v154q-29 -49 -71 -84t-89 -56.5t-95 -31t-87 -9.5q-76 0 -127 27t-84 61v-403h-113v1118h-170v113h283v-582q0 -94 59.5 -157.5t161.5 -63.5q96 0 160.5 36t102.5 92t53.5 126t15.5 137v299h-170v113h283v-774h170v-115h-283z" />
<glyph unicode="&#xb6;" d="M954 1440v-1755h-77v1755h-142v-1755h-80v888q-133 20 -219 70.5t-138 114t-72.5 136.5t-20.5 140q0 68 17.5 132.5t51.5 117.5q43 68 104.5 115t132.5 74.5t148.5 40t155.5 12.5h229v-86h-90z" />
<glyph unicode="&#xb7;" d="M766 567q0 -53 -44 -85.5t-93 -32.5q-66 0 -106 36.5t-40 83.5q0 51 42 87t102 36q61 0 100 -39t39 -86z" />
<glyph unicode="&#xb8;" d="M760 -203q0 -68 -42 -119t-106 -51q-39 0 -72 18l-42 21l28 84q18 -10 39 -20.5t43 -10.5q29 0 43.5 17.5t14.5 40.5q0 55 -58 55l-41 -10l11 178h94v-76q29 -4 58.5 -35t29.5 -92z" />
<glyph unicode="&#xb9;" d="M375 498v102h190v459l-192 -27v103l295 45v-580h190v-102h-483z" />
<glyph unicode="&#xba;" d="M797 952q0 18 -7.5 45t-27 51.5t-53 42t-86.5 17.5q-86 0 -134.5 -45t-48.5 -111q0 -78 56.5 -118.5t124.5 -40.5q33 0 64.5 10t56 30.5t40 50t15.5 68.5zM885 950q0 -66 -28 -112.5t-68.5 -76.5t-87 -43t-85.5 -13q-31 0 -75.5 12t-86.5 40.5t-72 76t-30 118.5 q0 63 25.5 109.5t64.5 76t87.5 44t91.5 14.5q59 0 107 -19.5t83 -53t54.5 -79t19.5 -94.5z" />
<glyph unicode="&#xbb;" d="M207 61l-35 99l377 295l-377 295l35 98l495 -393zM559 61l-35 99l379 295l-379 295l35 98l496 -393z" />
<glyph unicode="&#xbc;" d="M94 498v102h191v459l-193 -27v103l293 45v-580h190v-102h-481zM319 -205l-81 58l987 1353l84 -57zM1022 369l-154 -222h154v222zM911 -158v103h111v98h-283v74l267 397h118v-367h95v-104h-95v-98h95v-103h-308z" />
<glyph unicode="&#xbd;" d="M721 -160v97l262 204q39 29 75 69t36 93q0 47 -35 85t-94 38q-43 0 -81 -25.5t-38 -72.5q0 -14 2 -21h-100v119q41 47 97 73.5t120 26.5q57 0 100 -17t71.5 -47t43 -68t14.5 -77q0 -49 -17.5 -90t-55.5 -83t-97 -90t-145 -111h315v-103h-473zM84 498v102h190v459 l-192 -27v103l293 45v-580h190v-102h-481zM242 -205l-84 58l987 1353l84 -57z" />
<glyph unicode="&#xbe;" d="M565 688q0 -49 -20.5 -87t-54 -63.5t-77.5 -40t-89 -14.5q-59 0 -122 17.5t-106 40.5l29 104q43 -25 92 -42t100 -17q82 0 115 34.5t33 67.5q0 31 -17.5 50.5t-43 28.5t-55.5 12t-56 3h-29v101h12q78 0 114 29.5t36 74.5q0 47 -37 72.5t-80 25.5q-47 0 -87 -22.5 t-77 -48.5l-39 96q47 31 102.5 53.5t115.5 22.5q41 0 71.5 -10.5t55.5 -26.5q39 -27 58 -72t19 -92t-15 -79t-46 -58q41 -20 69.5 -52t28.5 -108zM250 -205l-82 55l985 1356l84 -57zM967 367l-154 -222h154v222zM854 -158v103h113v98h-285v74l266 397h119v-369h94v-102h-94 v-98h94v-103h-307z" />
<glyph unicode="&#xbf;" d="M985 -225q-72 -29 -159 -49.5t-179 -20.5q-113 0 -212 46t-150 145q-16 33 -26.5 72.5t-10.5 80.5q0 92 37 154.5t93 103.5t121.5 64.5t123.5 40.5v120h112v-215q-55 -10 -121.5 -26.5t-123 -45t-95.5 -76.5t-39 -124q0 -29 12.5 -68.5t44 -74.5t87 -59.5t141.5 -24.5 q61 0 120.5 15t112.5 40v127h111v-225zM819 805q0 -51 -42 -87t-101 -36q-61 0 -100 39t-39 86q0 53 44 86t93 33q66 0 105.5 -37t39.5 -84z" />
<glyph unicode="&#xc0;" d="M889 1284l-590 205l70 156l542 -299zM612 1092l-243 -633h501zM807 0v113h201l-93 233h-591l-88 -233h186v-113h-434v113h127l374 946h-292v112h501l426 -1058h111v-113h-428z" />
<glyph unicode="&#xc1;" d="M371 1284l-25 62l545 299l67 -156zM612 1092l-243 -633h501zM807 0v113h201l-93 233h-591l-88 -233h186v-113h-434v113h127l374 946h-292v112h501l426 -1058h111v-113h-428z" />
<glyph unicode="&#xc2;" d="M907 1284l-299 223l-305 -223l-84 37l305 324h166l301 -324zM612 1092l-243 -633h501zM807 0v113h201l-93 233h-591l-88 -233h186v-113h-434v113h127l374 946h-292v112h501l426 -1058h111v-113h-428z" />
<glyph unicode="&#xc3;" d="M1030 1573q-8 -31 -25.5 -70t-46 -72.5t-68.5 -56t-93 -22.5q-47 0 -89 22.5t-81 48.5q-41 29 -77 50.5t-71 21.5q-37 0 -63.5 -14.5t-45 -36t-29.5 -44t-17 -38.5l-105 22q14 43 40 83t59.5 70t73.5 47.5t83 17.5q47 0 84 -21.5t72 -50.5q35 -27 70.5 -49.5t76.5 -22.5 q29 0 53.5 13.5t43 34t32 44t19.5 43.5zM612 1092l-243 -633h501zM807 0v113h201l-93 233h-591l-88 -233h186v-113h-434v113h127l374 946h-292v112h501l426 -1058h111v-113h-428z" />
<glyph unicode="&#xc4;" d="M373 1352v256h172v-256h-172zM674 1352v256h172v-256h-172zM612 1092l-243 -633h501zM807 0v113h201l-93 233h-591l-88 -233h186v-113h-434v113h127l374 946h-292v112h501l426 -1058h111v-113h-428z" />
<glyph unicode="&#xc5;" d="M688 1438q0 23 -14.5 51.5t-63.5 28.5q-41 0 -60.5 -22.5t-19.5 -53.5t11.5 -46.5t25 -23.5t26.5 -9t19 -1q35 0 55.5 20.5t20.5 55.5zM809 1442q0 -84 -52 -143.5t-145 -59.5q-41 0 -77.5 13.5t-64.5 39t-45 62.5t-17 84q0 86 55 144t145 58q61 0 100.5 -21.5t62 -53 t30.5 -65t8 -58.5zM612 1092l-243 -633h501zM807 0v113h201l-93 233h-591l-88 -233h186v-113h-434v113h127l374 946h-292v112h501l426 -1058h111v-113h-428z" />
<glyph unicode="&#xc6;" d="M604 1057l-233 -600h233v600zM604 0v344h-274l-82 -231h176v-113h-401v113h108l358 946h-184v112h836v-323h-113v211h-311v-416h145v117h111v-348h-111v118h-145v-417h311v206h113v-319h-537z" />
<glyph unicode="&#xc7;" d="M1141 125q-94 -70 -208 -111t-237 -41h-20v-45q33 -6 57 -41q12 -16 20.5 -39.5t8.5 -56.5q0 -96 -45 -142t-99 -46q-41 0 -73.5 27.5t-42.5 39.5l33 82q16 -10 35.5 -20.5t41.5 -10.5q18 0 30.5 7.5t19 17.5t8.5 19.5t2 15.5q0 20 -13.5 36.5t-48.5 16.5q-27 0 -41 -10 l11 160q-111 20 -195 78.5t-139.5 141.5t-83 187.5t-27.5 216.5q0 117 38 223.5t108.5 187.5t169 129t219.5 48q162 0 295 -86l61 -39v125h111v-436h-111v166q-68 72 -156 115.5t-186 43.5q-57 0 -132 -22.5t-142.5 -78.5t-113.5 -150.5t-46 -235.5q0 -121 34.5 -216 t96 -160.5t145.5 -100.5t181 -35q104 0 203.5 38t181.5 97z" />
<glyph unicode="&#xc8;" d="M918 1284l-590 205l69 156l543 -299zM117 0v113h162v946h-166v112h981v-391h-113v279h-592v-418h328v152h112v-414h-112v149h-328v-415h604v278h113v-391h-989z" />
<glyph unicode="&#xc9;" d="M399 1284l-24 62l545 299l67 -156zM117 0v113h162v946h-166v112h981v-391h-113v279h-592v-418h328v152h112v-414h-112v149h-328v-415h604v278h113v-391h-989z" />
<glyph unicode="&#xca;" d="M936 1284l-299 223l-305 -223l-84 37l305 324h166l301 -324zM117 0v113h162v946h-166v112h981v-391h-113v279h-592v-418h328v152h112v-414h-112v149h-328v-415h604v278h113v-391h-989z" />
<glyph unicode="&#xcb;" d="M401 1352v256h172v-256h-172zM702 1352v256h172v-256h-172zM117 0v113h162v946h-166v112h981v-391h-113v279h-592v-418h328v152h112v-414h-112v149h-328v-415h604v278h113v-391h-989z" />
<glyph unicode="&#xcc;" d="M903 1284l-590 205l70 156l543 -299zM223 0v113h336v946h-336v112h783v-112h-334v-946h334v-113h-783z" />
<glyph unicode="&#xcd;" d="M385 1284l-25 62l545 299l68 -156zM223 0v113h336v946h-336v112h783v-112h-334v-946h334v-113h-783z" />
<glyph unicode="&#xce;" d="M922 1284l-299 223l-306 -223l-84 37l306 324h166l301 -324zM223 0v113h336v946h-336v112h783v-112h-334v-946h334v-113h-783z" />
<glyph unicode="&#xcf;" d="M387 1352v256h172v-256h-172zM688 1352v256h172v-256h-172zM223 0v113h336v946h-336v112h783v-112h-334v-946h334v-113h-783z" />
<glyph unicode="&#xd0;" d="M1030 596q0 135 -37 230.5t-86 138.5q-39 33 -74.5 52t-77.5 28.5t-93.5 11.5t-118.5 2h-203v-430h344v-111h-344v-405h225q57 0 112.5 6t107 23.5t93.5 48t70 79.5q41 70 61.5 154t20.5 172zM1143 612q0 -141 -29 -245.5t-79 -177t-118.5 -114.5t-150.5 -57 q-61 -10 -126 -14t-132 -4h-438v113h159v405h-153v111h153v430h-159v112h495q55 0 105.5 -2t97.5 -12q80 -18 148.5 -58t118.5 -105.5t79 -161t29 -220.5z" />
<glyph unicode="&#xd1;" d="M1044 1573q-8 -31 -25.5 -70t-46 -72.5t-68.5 -56t-93 -22.5q-47 0 -89 22.5t-81 48.5q-41 29 -77 50.5t-70 21.5q-37 0 -64 -14.5t-45 -36t-29.5 -44t-17.5 -38.5l-105 22q14 43 40 83t60 70t73.5 47.5t82.5 17.5q47 0 84 -21.5t72 -50.5q35 -27 71 -49.5t77 -22.5 q29 0 53 13.5t42.5 34t32 44t19.5 43.5zM1044 1059v-1059h-149l-588 1012v-899h221v-113h-497v113h164v946h-166v112h319l584 -1017v905h-219v112h487v-112h-156z" />
<glyph unicode="&#xd2;" d="M903 1284l-590 205l70 156l543 -299zM1034 584q0 59 -17.5 145t-63.5 165t-127 135t-210 56q-117 0 -197.5 -53t-130.5 -130t-72.5 -164t-22.5 -154q0 -98 29.5 -187.5t84.5 -158t134 -109.5t180 -41q100 0 178 41t130 109.5t78.5 158t26.5 187.5zM1147 588 q0 -127 -36 -237.5t-103.5 -194.5t-166 -132.5t-223.5 -48.5q-121 0 -220 48.5t-169.5 132.5t-109.5 194.5t-39 237.5q0 109 33.5 217t101.5 196.5t169 142.5t237 54q104 0 185 -31.5t139.5 -84t97 -118t62 -133t33 -132t9.5 -111.5z" />
<glyph unicode="&#xd3;" d="M385 1284l-25 62l545 299l68 -156zM1034 584q0 59 -17.5 145t-63.5 165t-127 135t-210 56q-117 0 -197.5 -53t-130.5 -130t-72.5 -164t-22.5 -154q0 -98 29.5 -187.5t84.5 -158t134 -109.5t180 -41q100 0 178 41t130 109.5t78.5 158t26.5 187.5zM1147 588 q0 -127 -36 -237.5t-103.5 -194.5t-166 -132.5t-223.5 -48.5q-121 0 -220 48.5t-169.5 132.5t-109.5 194.5t-39 237.5q0 109 33.5 217t101.5 196.5t169 142.5t237 54q104 0 185 -31.5t139.5 -84t97 -118t62 -133t33 -132t9.5 -111.5z" />
<glyph unicode="&#xd4;" d="M922 1284l-299 223l-306 -223l-84 37l306 324h166l301 -324zM1034 584q0 59 -17.5 145t-63.5 165t-127 135t-210 56q-117 0 -197.5 -53t-130.5 -130t-72.5 -164t-22.5 -154q0 -98 29.5 -187.5t84.5 -158t134 -109.5t180 -41q100 0 178 41t130 109.5t78.5 158t26.5 187.5z M1147 588q0 -127 -36 -237.5t-103.5 -194.5t-166 -132.5t-223.5 -48.5q-121 0 -220 48.5t-169.5 132.5t-109.5 194.5t-39 237.5q0 109 33.5 217t101.5 196.5t169 142.5t237 54q104 0 185 -31.5t139.5 -84t97 -118t62 -133t33 -132t9.5 -111.5z" />
<glyph unicode="&#xd5;" d="M1044 1573q-8 -31 -25.5 -70t-46 -72.5t-68.5 -56t-93 -22.5q-47 0 -89 22.5t-81 48.5q-41 29 -77 50.5t-70 21.5q-37 0 -64 -14.5t-45 -36t-29.5 -44t-17.5 -38.5l-105 22q14 43 40 83t60 70t73.5 47.5t82.5 17.5q47 0 84 -21.5t72 -50.5q35 -27 71 -49.5t77 -22.5 q29 0 53 13.5t42.5 34t32 44t19.5 43.5zM1034 584q0 59 -17.5 145t-63.5 165t-127 135t-210 56q-117 0 -197.5 -53t-130.5 -130t-72.5 -164t-22.5 -154q0 -98 29.5 -187.5t84.5 -158t134 -109.5t180 -41q100 0 178 41t130 109.5t78.5 158t26.5 187.5zM1147 588 q0 -127 -36 -237.5t-103.5 -194.5t-166 -132.5t-223.5 -48.5q-121 0 -220 48.5t-169.5 132.5t-109.5 194.5t-39 237.5q0 109 33.5 217t101.5 196.5t169 142.5t237 54q104 0 185 -31.5t139.5 -84t97 -118t62 -133t33 -132t9.5 -111.5z" />
<glyph unicode="&#xd6;" d="M387 1352v256h172v-256h-172zM688 1352v256h172v-256h-172zM1034 584q0 59 -17.5 145t-63.5 165t-127 135t-210 56q-117 0 -197.5 -53t-130.5 -130t-72.5 -164t-22.5 -154q0 -98 29.5 -187.5t84.5 -158t134 -109.5t180 -41q100 0 178 41t130 109.5t78.5 158t26.5 187.5z M1147 588q0 -127 -36 -237.5t-103.5 -194.5t-166 -132.5t-223.5 -48.5q-121 0 -220 48.5t-169.5 132.5t-109.5 194.5t-39 237.5q0 109 33.5 217t101.5 196.5t169 142.5t237 54q104 0 185 -31.5t139.5 -84t97 -118t62 -133t33 -132t9.5 -111.5z" />
<glyph unicode="&#xd7;" d="M975 0l-361 358l-358 -358l-80 78l361 360l-363 361l80 80l360 -359l359 361l80 -78l-359 -363l363 -358z" />
<glyph unicode="&#xd8;" d="M868 997q-47 41 -108.5 64.5t-143.5 23.5q-119 0 -199.5 -53t-130.5 -130t-71.5 -164t-21.5 -154q0 -96 27.5 -183.5t80.5 -154.5zM1034 584q0 63 -18.5 154t-71.5 173l-565 -743q49 -37 109.5 -58.5t132.5 -21.5q100 0 178 41t130 109.5t78.5 158t26.5 187.5zM1147 588 q0 -127 -36 -237.5t-103.5 -194.5t-166 -132.5t-223.5 -48.5q-90 0 -166.5 27t-140.5 74l-100 -131l-88 65l106 142q-72 84 -110.5 195.5t-38.5 240.5q0 109 33.5 217t101.5 196.5t169 142.5t237 54q104 0 181 -30.5t136 -80.5l84 111l88 -68l-94 -124q37 -51 62.5 -107.5 t41 -112t21.5 -107.5t6 -91z" />
<glyph unicode="&#xd9;" d="M918 1284l-590 205l69 156l543 -299zM1067 1059v-653q0 -98 -27.5 -186.5t-91.5 -143.5q-59 -53 -145 -77t-164 -24q-84 0 -166 21.5t-143 71.5q-45 37 -71 82t-38 96t-15 107.5t-3 111.5v594h-166v112h500v-112h-224v-615q0 -41 4.5 -83t16.5 -80.5t33.5 -73.5t56.5 -60 q45 -33 100.5 -46t112.5 -13q61 0 119.5 14.5t102.5 51t70.5 98t26.5 156.5v651h-217v112h490v-112h-162z" />
<glyph unicode="&#xda;" d="M399 1284l-24 62l545 299l67 -156zM1067 1059v-653q0 -98 -27.5 -186.5t-91.5 -143.5q-59 -53 -145 -77t-164 -24q-84 0 -166 21.5t-143 71.5q-45 37 -71 82t-38 96t-15 107.5t-3 111.5v594h-166v112h500v-112h-224v-615q0 -41 4.5 -83t16.5 -80.5t33.5 -73.5t56.5 -60 q45 -33 100.5 -46t112.5 -13q61 0 119.5 14.5t102.5 51t70.5 98t26.5 156.5v651h-217v112h490v-112h-162z" />
<glyph unicode="&#xdb;" d="M936 1284l-299 223l-305 -223l-84 37l305 324h166l301 -324zM1067 1059v-653q0 -98 -27.5 -186.5t-91.5 -143.5q-59 -53 -145 -77t-164 -24q-84 0 -166 21.5t-143 71.5q-45 37 -71 82t-38 96t-15 107.5t-3 111.5v594h-166v112h500v-112h-224v-615q0 -41 4.5 -83 t16.5 -80.5t33.5 -73.5t56.5 -60q45 -33 100.5 -46t112.5 -13q61 0 119.5 14.5t102.5 51t70.5 98t26.5 156.5v651h-217v112h490v-112h-162z" />
<glyph unicode="&#xdc;" d="M401 1352v256h172v-256h-172zM702 1352v256h172v-256h-172zM1067 1059v-653q0 -98 -27.5 -186.5t-91.5 -143.5q-59 -53 -145 -77t-164 -24q-84 0 -166 21.5t-143 71.5q-45 37 -71 82t-38 96t-15 107.5t-3 111.5v594h-166v112h500v-112h-224v-615q0 -41 4.5 -83 t16.5 -80.5t33.5 -73.5t56.5 -60q45 -33 100.5 -46t112.5 -13q61 0 119.5 14.5t102.5 51t70.5 98t26.5 156.5v651h-217v112h490v-112h-162z" />
<glyph unicode="&#xdd;" d="M395 1284l-24 62l544 299l68 -156zM1040 1059l-354 -604v-342h252v-113h-619v113h254v342l-362 604h-139v112h405v-112h-143l295 -492l291 492h-142v112h400v-112h-138z" />
<glyph unicode="&#xde;" d="M1085 582q0 61 -21.5 107t-58 77t-84 46t-98.5 15h-336v-481h250q41 0 82 2t79 10.5t73 25.5t61 48q29 31 41 70t12 80zM1198 586q0 -76 -27.5 -146.5t-87.5 -120.5q-63 -53 -143 -69.5t-166 -16.5h-287v-120h314v-113h-660v113h236v946h-236v112h576v-112h-230v-119h322 q82 0 152.5 -23.5t123 -67.5t83 -110.5t30.5 -152.5z" />
<glyph unicode="&#xdf;" d="M1200 276q0 -90 -44 -148t-108.5 -92t-139 -47.5t-138.5 -13.5q-180 0 -328 95l45 112q61 -49 132 -71.5t149 -22.5q20 0 73.5 4t108 21.5t96 53.5t41.5 97q0 35 -10 57.5t-25.5 38t-36.5 24.5l-42 17l-209 80q-37 14 -74 32.5t-67.5 44.5t-49 61.5t-18.5 82.5 q0 76 55 125q27 25 66 42.5t80 34t78.5 35.5t60.5 44q25 25 25 72q0 41 -23 63.5t-62.5 33.5t-92 14t-111.5 3q-80 0 -129 -9t-78 -31.5t-39 -59.5t-10 -90v-979h-279v113h168v663h-170v113h170v55q0 84 11.5 153.5t66.5 112.5q27 20 60.5 35t69.5 23t71 11t65 3 q143 0 225 -15.5t134 -62.5q33 -29 48 -68.5t15 -82.5q0 -20 -2 -40t-12 -38q-18 -43 -51 -68.5t-71 -44t-78 -33t-75 -32.5q-6 -4 -19 -11.5t-26.5 -18.5t-22.5 -27.5t-9 -39.5q0 -25 11 -44t36.5 -36.5t68.5 -35t105 -39.5q68 -25 133 -43.5t123 -65.5q35 -29 47 -74 t12 -86z" />
<glyph unicode="&#xe0;" d="M852 410q-66 10 -130.5 18t-131.5 8q-72 0 -148.5 -8t-134.5 -49q-31 -23 -52.5 -55.5t-21.5 -73.5q0 -29 15.5 -58.5t44.5 -52t67.5 -37t85.5 -14.5q125 0 226.5 63.5t179.5 155.5v103zM854 0v172q-86 -82 -189.5 -139.5t-220.5 -57.5q-78 0 -139 25t-102 63.5t-62.5 89 t-21.5 99.5q0 45 22.5 97t73.5 97.5t136 75t212 29.5q74 0 147.5 -9.5t141.5 -19.5v64q0 51 -13.5 99t-54.5 73q-45 29 -94 36t-102 7t-105.5 -9.5t-98.5 -22.5t-84 -27.5t-62 -26.5l-29 110q90 37 192.5 63.5t206.5 26.5q131 0 209 -40.5t111 -100.5q23 -41 29 -84t6 -84 v-493h167v-113h-276zM885 1004l-590 204l70 158l542 -299z" />
<glyph unicode="&#xe1;" d="M852 410q-66 10 -130.5 18t-131.5 8q-72 0 -148.5 -8t-134.5 -49q-31 -23 -52.5 -55.5t-21.5 -73.5q0 -29 15.5 -58.5t44.5 -52t67.5 -37t85.5 -14.5q125 0 226.5 63.5t179.5 155.5v103zM854 0v172q-86 -82 -189.5 -139.5t-220.5 -57.5q-78 0 -139 25t-102 63.5t-62.5 89 t-21.5 99.5q0 45 22.5 97t73.5 97.5t136 75t212 29.5q74 0 147.5 -9.5t141.5 -19.5v64q0 51 -13.5 99t-54.5 73q-45 29 -94 36t-102 7t-105.5 -9.5t-98.5 -22.5t-84 -27.5t-62 -26.5l-29 110q90 37 192.5 63.5t206.5 26.5q131 0 209 -40.5t111 -100.5q23 -41 29 -84t6 -84 v-493h167v-113h-276zM338 1004l-25 63l545 297l68 -156z" />
<glyph unicode="&#xe2;" d="M852 410q-66 10 -130.5 18t-131.5 8q-72 0 -148.5 -8t-134.5 -49q-31 -23 -52.5 -55.5t-21.5 -73.5q0 -29 15.5 -58.5t44.5 -52t67.5 -37t85.5 -14.5q125 0 226.5 63.5t179.5 155.5v103zM854 0v172q-86 -82 -189.5 -139.5t-220.5 -57.5q-78 0 -139 25t-102 63.5t-62.5 89 t-21.5 99.5q0 45 22.5 97t73.5 97.5t136 75t212 29.5q74 0 147.5 -9.5t141.5 -19.5v64q0 51 -13.5 99t-54.5 73q-45 29 -94 36t-102 7t-105.5 -9.5t-98.5 -22.5t-84 -27.5t-62 -26.5l-29 110q90 37 192.5 63.5t206.5 26.5q131 0 209 -40.5t111 -100.5q23 -41 29 -84t6 -84 v-493h167v-113h-276zM889 1004l-299 225l-303 -225l-84 36l305 326h164l303 -326z" />
<glyph unicode="&#xe3;" d="M852 410q-66 10 -130.5 18t-131.5 8q-72 0 -148.5 -8t-134.5 -49q-31 -23 -52.5 -55.5t-21.5 -73.5q0 -29 15.5 -58.5t44.5 -52t67.5 -37t85.5 -14.5q125 0 226.5 63.5t179.5 155.5v103zM854 0v172q-86 -82 -189.5 -139.5t-220.5 -57.5q-78 0 -139 25t-102 63.5t-62.5 89 t-21.5 99.5q0 45 22.5 97t73.5 97.5t136 75t212 29.5q74 0 147.5 -9.5t141.5 -19.5v64q0 51 -13.5 99t-54.5 73q-45 29 -94 36t-102 7t-105.5 -9.5t-98.5 -22.5t-84 -27.5t-62 -26.5l-29 110q90 37 192.5 63.5t206.5 26.5q131 0 209 -40.5t111 -100.5q23 -41 29 -84t6 -84 v-493h167v-113h-276zM991 1280q-29 -90 -98.5 -154.5t-165.5 -64.5q-51 0 -95 21.5t-85 50.5q-39 27 -74 48t-70 21q-29 0 -49 -16.5t-35.5 -39t-24.5 -44t-11 -33.5l-105 23q35 104 106.5 160.5t149.5 56.5q43 0 82 -21.5t74 -50.5q35 -27 71.5 -49.5t77.5 -22.5 q27 0 51.5 13.5t44 34t34 44t20.5 43.5z" />
<glyph unicode="&#xe4;" d="M340 1061v254h174v-254h-174zM643 1061v254h170v-254h-170zM852 410q-66 10 -130.5 18t-131.5 8q-72 0 -148.5 -8t-134.5 -49q-31 -23 -52.5 -55.5t-21.5 -73.5q0 -29 15.5 -58.5t44.5 -52t67.5 -37t85.5 -14.5q125 0 226.5 63.5t179.5 155.5v103zM854 0v172 q-86 -82 -189.5 -139.5t-220.5 -57.5q-78 0 -139 25t-102 63.5t-62.5 89t-21.5 99.5q0 45 22.5 97t73.5 97.5t136 75t212 29.5q74 0 147.5 -9.5t141.5 -19.5v64q0 51 -13.5 99t-54.5 73q-45 29 -94 36t-102 7t-105.5 -9.5t-98.5 -22.5t-84 -27.5t-62 -26.5l-29 110 q90 37 192.5 63.5t206.5 26.5q131 0 209 -40.5t111 -100.5q23 -41 29 -84t6 -84v-493h167v-113h-276z" />
<glyph unicode="&#xe5;" d="M852 410q-66 10 -130.5 18t-131.5 8q-72 0 -148.5 -8t-134.5 -49q-31 -23 -52.5 -55.5t-21.5 -73.5q0 -29 15.5 -58.5t44.5 -52t67.5 -37t85.5 -14.5q125 0 226.5 63.5t179.5 155.5v103zM854 0v172q-86 -82 -189.5 -139.5t-220.5 -57.5q-78 0 -139 25t-102 63.5t-62.5 89 t-21.5 99.5q0 45 22.5 97t73.5 97.5t136 75t212 29.5q74 0 147.5 -9.5t141.5 -19.5v64q0 51 -13.5 99t-54.5 73q-45 29 -94 36t-102 7t-105.5 -9.5t-98.5 -22.5t-84 -27.5t-62 -26.5l-29 110q90 37 192.5 63.5t206.5 26.5q131 0 209 -40.5t111 -100.5q23 -41 29 -84t6 -84 v-493h167v-113h-276zM678 1196q0 33 -22.5 55.5t-55.5 22.5t-55.5 -22.5t-22.5 -55.5t22.5 -55.5t55.5 -22.5t55.5 22.5t22.5 55.5zM799 1196q0 -84 -57.5 -141.5t-141.5 -57.5t-141.5 57.5t-57.5 141.5t57.5 141.5t141.5 57.5t141.5 -57.5t57.5 -141.5z" />
<glyph unicode="&#xe6;" d="M537 432l-43 4l-38 4q-19 2 -36 2q-35 0 -56.5 -3t-46.5 -7q-59 -12 -106 -65.5t-47 -128.5q0 -72 41 -112t100 -40q49 0 87 22.5t67.5 52t48.5 60.5l29 47v164zM1042 545q-4 102 -45 180q-14 27 -45.5 52.5t-85.5 25.5q-47 0 -85 -21.5t-65.5 -58.5t-44 -83t-18.5 -95 h389zM1155 20q-59 -16 -125.5 -30.5t-134.5 -14.5q-121 0 -197.5 54.5t-105.5 134.5q-45 -68 -88 -106t-80 -56t-67.5 -22.5t-51.5 -4.5q-47 0 -92 14.5t-82 46.5t-59.5 80t-22.5 115q0 125 62.5 199t154.5 102q37 10 69 15.5t85 5.5q20 0 54 -2t63 -8v71q0 43 -7.5 78 t-26 59.5t-51 38t-85.5 13.5q-61 0 -121 -17.5t-113 -40.5l-20 111q66 25 131 42t149 17q72 0 116 -17t67.5 -40.5t34 -46.5t14.5 -33q41 63 94 100t139 37q80 0 133 -32.5t90 -87.5q41 -61 57.5 -145.5t16.5 -170.5q0 -12 -1 -24.5t-1 -24.5h-504v-10q0 -47 8.5 -93 t25.5 -88t47 -75t73 -53q51 -25 115 -25q55 0 110 15.5t102 31.5z" />
<glyph unicode="&#xe7;" d="M1090 137q-86 -66 -186.5 -109.5t-229.5 -50.5v-53q29 -4 58.5 -35.5t29.5 -91.5q0 -37 -12.5 -67.5t-33 -53t-47 -36t-55.5 -13.5q-12 0 -39.5 6.5t-74.5 34.5l28 82q16 -10 37 -20.5t43 -10.5q37 0 48.5 22.5t11.5 39.5q0 29 -18.5 40t-39.5 11q-10 0 -21 -4t-22 -6 l11 155q-88 8 -166 45t-136.5 98.5t-93.5 146.5t-35 190q0 70 28 150.5t87.5 149t153.5 113.5t227 45q90 0 165 -25.5t146 -72.5v98h113v-358h-113v141q-66 55 -145.5 79t-167.5 24t-158.5 -29t-120 -78t-76 -112.5t-26.5 -130.5q0 -49 18.5 -113t65.5 -120t125 -94t199 -38 q61 0 120.5 19.5t110.5 46t89 54t56 44.5z" />
<glyph unicode="&#xe8;" d="M965 543q0 18 -14.5 61t-53.5 87t-105.5 77t-173.5 33q-86 0 -152.5 -23.5t-112.5 -60.5t-71.5 -83t-31.5 -91h715zM1098 104q-100 -55 -222 -92t-247 -37q-135 0 -229.5 39t-155 104.5t-88 150.5t-27.5 175q0 106 38 193.5t104.5 149t155.5 95t191 33.5 q123 0 212.5 -39.5t145.5 -106.5t82.5 -155t26.5 -184h-839v-16q0 -41 10 -81t28.5 -76t43 -63.5t53.5 -46.5q59 -37 126.5 -49t139.5 -12t183.5 29.5t232.5 97.5zM915 1004l-589 204l69 158l543 -299z" />
<glyph unicode="&#xe9;" d="M965 543q0 18 -14.5 61t-53.5 87t-105.5 77t-173.5 33q-86 0 -152.5 -23.5t-112.5 -60.5t-71.5 -83t-31.5 -91h715zM1098 104q-100 -55 -222 -92t-247 -37q-135 0 -229.5 39t-155 104.5t-88 150.5t-27.5 175q0 106 38 193.5t104.5 149t155.5 95t191 33.5 q123 0 212.5 -39.5t145.5 -106.5t82.5 -155t26.5 -184h-839v-16q0 -41 10 -81t28.5 -76t43 -63.5t53.5 -46.5q59 -37 126.5 -49t139.5 -12t183.5 29.5t232.5 97.5zM369 1004l-25 63l545 297l67 -156z" />
<glyph unicode="&#xea;" d="M965 543q0 18 -14.5 61t-53.5 87t-105.5 77t-173.5 33q-86 0 -152.5 -23.5t-112.5 -60.5t-71.5 -83t-31.5 -91h715zM1098 104q-100 -55 -222 -92t-247 -37q-135 0 -229.5 39t-155 104.5t-88 150.5t-27.5 175q0 106 38 193.5t104.5 149t155.5 95t191 33.5 q123 0 212.5 -39.5t145.5 -106.5t82.5 -155t26.5 -184h-839v-16q0 -41 10 -81t28.5 -76t43 -63.5t53.5 -46.5q59 -37 126.5 -49t139.5 -12t183.5 29.5t232.5 97.5zM920 1004l-299 225l-304 -225l-84 36l306 326h163l304 -326z" />
<glyph unicode="&#xeb;" d="M371 1061v254h174v-254h-174zM674 1061v254h170v-254h-170zM965 543q0 18 -14.5 61t-53.5 87t-105.5 77t-173.5 33q-86 0 -152.5 -23.5t-112.5 -60.5t-71.5 -83t-31.5 -91h715zM1098 104q-100 -55 -222 -92t-247 -37q-135 0 -229.5 39t-155 104.5t-88 150.5t-27.5 175 q0 106 38 193.5t104.5 149t155.5 95t191 33.5q123 0 212.5 -39.5t145.5 -106.5t82.5 -155t26.5 -184h-839v-16q0 -41 10 -81t28.5 -76t43 -63.5t53.5 -46.5q59 -37 126.5 -49t139.5 -12t183.5 29.5t232.5 97.5z" />
<glyph unicode="&#xec;" d="M209 0v113h360v663h-311v113h424v-776h354v-113h-827zM881 1004l-590 204l69 158l543 -299z" />
<glyph unicode="&#xed;" d="M209 0v113h360v663h-311v113h424v-776h354v-113h-827zM334 1004l-25 63l545 297l68 -156z" />
<glyph unicode="&#xee;" d="M209 0v113h360v663h-311v113h424v-776h354v-113h-827zM885 1004l-299 225l-303 -225l-84 36l305 326h164l303 -326z" />
<glyph unicode="&#xef;" d="M209 0v113h360v663h-311v113h424v-776h354v-113h-827zM336 1061v254h174v-254h-174zM639 1061v254h170v-254h-170z" />
<glyph unicode="&#xf0;" d="M1018 446q0 49 -16.5 110.5t-60.5 115t-122 91.5t-203 40h-14q-86 0 -157.5 -27.5t-123 -76t-80 -114t-28.5 -141.5q0 -74 29.5 -139t83 -113.5t127 -76t163.5 -27.5q84 0 158 25.5t128 72.5t85 112.5t31 147.5zM1135 479q-2 -96 -33 -187t-94.5 -162t-160.5 -113 t-233 -42q-111 0 -205 33t-162.5 93.5t-108.5 147.5t-40 195q0 80 28 163t90.5 150.5t162.5 111.5t246 44q84 0 163.5 -20.5t139.5 -69.5q-4 10 -22.5 45t-50.5 80t-77 93.5t-106 86.5l-230 -131l-57 97l164 96q-102 41 -209 51l74 100q70 -10 135 -30.5t127 -48.5l237 139 l56 -98l-185 -107q102 -74 170 -167t108 -189.5t56.5 -188.5t16.5 -164v-8z" />
<glyph unicode="&#xf1;" d="M733 0v113h168v522q0 53 -19.5 86t-49 51.5t-65.5 24.5t-69 6q-94 0 -189 -48t-161 -120v-522h170v-113h-450v113h170v661h-170v115h280v-129q78 72 177.5 113.5t205.5 41.5q74 0 123 -17t82 -44q47 -39 61.5 -99.5t14.5 -117.5v-524h168v-113h-447zM1022 1280 q-29 -90 -98.5 -154.5t-165.5 -64.5q-51 0 -95.5 21.5t-84.5 50.5q-39 27 -74 48t-70 21q-29 0 -49 -16.5t-35.5 -39t-25 -44t-11.5 -33.5l-104 23q35 104 106.5 160.5t149.5 56.5q43 0 82 -21.5t74 -50.5q35 -27 71.5 -49.5t77.5 -22.5q27 0 51.5 13.5t44 34t33.5 44 t21 43.5z" />
<glyph unicode="&#xf2;" d="M1022 442q0 41 -16.5 102.5t-60.5 119t-122 98.5t-200 41q-96 0 -171 -30t-126.5 -79t-79 -114.5t-27.5 -137.5q0 -61 24.5 -124.5t75 -114.5t126 -83t180.5 -32q88 0 160.5 26.5t125 74t82 111.5t29.5 142zM1135 444q0 -100 -36 -186t-101.5 -148.5t-160 -98.5 t-210.5 -36q-121 0 -217.5 35t-164 97.5t-103.5 148.5t-36 188q0 111 40 198t111 147.5t165 93t203 32.5q147 0 245.5 -48t156.5 -119.5t83 -153.5t25 -150zM915 1004l-589 204l69 158l543 -299z" />
<glyph unicode="&#xf3;" d="M1022 442q0 41 -16.5 102.5t-60.5 119t-122 98.5t-200 41q-96 0 -171 -30t-126.5 -79t-79 -114.5t-27.5 -137.5q0 -61 24.5 -124.5t75 -114.5t126 -83t180.5 -32q88 0 160.5 26.5t125 74t82 111.5t29.5 142zM1135 444q0 -100 -36 -186t-101.5 -148.5t-160 -98.5 t-210.5 -36q-121 0 -217.5 35t-164 97.5t-103.5 148.5t-36 188q0 111 40 198t111 147.5t165 93t203 32.5q147 0 245.5 -48t156.5 -119.5t83 -153.5t25 -150zM369 1004l-25 63l545 297l67 -156z" />
<glyph unicode="&#xf4;" d="M1022 442q0 41 -16.5 102.5t-60.5 119t-122 98.5t-200 41q-96 0 -171 -30t-126.5 -79t-79 -114.5t-27.5 -137.5q0 -61 24.5 -124.5t75 -114.5t126 -83t180.5 -32q88 0 160.5 26.5t125 74t82 111.5t29.5 142zM1135 444q0 -100 -36 -186t-101.5 -148.5t-160 -98.5 t-210.5 -36q-121 0 -217.5 35t-164 97.5t-103.5 148.5t-36 188q0 111 40 198t111 147.5t165 93t203 32.5q147 0 245.5 -48t156.5 -119.5t83 -153.5t25 -150zM920 1004l-299 225l-304 -225l-84 36l306 326h163l304 -326z" />
<glyph unicode="&#xf5;" d="M1022 442q0 41 -16.5 102.5t-60.5 119t-122 98.5t-200 41q-96 0 -171 -30t-126.5 -79t-79 -114.5t-27.5 -137.5q0 -61 24.5 -124.5t75 -114.5t126 -83t180.5 -32q88 0 160.5 26.5t125 74t82 111.5t29.5 142zM1135 444q0 -100 -36 -186t-101.5 -148.5t-160 -98.5 t-210.5 -36q-121 0 -217.5 35t-164 97.5t-103.5 148.5t-36 188q0 111 40 198t111 147.5t165 93t203 32.5q147 0 245.5 -48t156.5 -119.5t83 -153.5t25 -150zM1022 1280q-29 -90 -98.5 -154.5t-165.5 -64.5q-51 0 -95.5 21.5t-84.5 50.5q-39 27 -74 48t-70 21 q-29 0 -49 -16.5t-35.5 -39t-25 -44t-11.5 -33.5l-104 23q35 104 106.5 160.5t149.5 56.5q43 0 82 -21.5t74 -50.5q35 -27 71.5 -49.5t77.5 -22.5q27 0 51.5 13.5t44 34t33.5 44t21 43.5z" />
<glyph unicode="&#xf6;" d="M371 1061v254h174v-254h-174zM674 1061v254h170v-254h-170zM1022 442q0 41 -16.5 102.5t-60.5 119t-122 98.5t-200 41q-96 0 -171 -30t-126.5 -79t-79 -114.5t-27.5 -137.5q0 -61 24.5 -124.5t75 -114.5t126 -83t180.5 -32q88 0 160.5 26.5t125 74t82 111.5t29.5 142z M1135 444q0 -100 -36 -186t-101.5 -148.5t-160 -98.5t-210.5 -36q-121 0 -217.5 35t-164 97.5t-103.5 148.5t-36 188q0 111 40 198t111 147.5t165 93t203 32.5q147 0 245.5 -48t156.5 -119.5t83 -153.5t25 -150z" />
<glyph unicode="&#xf7;" d="M711 160q0 -37 -27 -63.5t-63 -26.5q-37 0 -64 26.5t-27 63.5t27 63.5t64 26.5t63.5 -26.5t26.5 -63.5zM180 387v115h879v-115h-879zM711 729q0 -37 -27 -63.5t-63 -26.5q-37 0 -64 26.5t-27 63.5t27 63.5t64 26.5t63.5 -26.5t26.5 -63.5z" />
<glyph unicode="&#xf8;" d="M866 739q-59 39 -124.5 52.5t-116.5 13.5q-84 0 -158 -25.5t-128 -71.5t-86 -113t-32 -149q0 -61 19.5 -119.5t60.5 -101.5zM1022 446q0 59 -17.5 113.5t-54.5 99.5l-561 -509q51 -33 110.5 -46.5t123.5 -13.5q106 0 177.5 31t116 74t67 87t28.5 70zM1036 739 q51 -59 75 -135t24 -155q0 -115 -41 -203t-111 -148.5t-162 -91.5t-196 -31q-82 0 -167 20.5t-157 74.5l-117 -105l-78 84l109 96q-53 59 -81 138t-28 163q0 96 35 181.5t101.5 150t163 102.5t221.5 38q92 0 174 -24t153 -75l115 105l78 -84z" />
<glyph unicode="&#xf9;" d="M887 0v137q-59 -55 -108.5 -88t-91.5 -49t-77 -20.5t-65 -4.5q-61 0 -119.5 15.5t-106.5 52.5q-53 41 -74.5 100.5t-21.5 122.5v510h-170v113h281v-567q0 -55 14 -106.5t62 -86.5q33 -23 74.5 -33t82.5 -10q98 0 178 57.5t142 135.5v497h-170v113h280v-776h168v-113h-278 zM897 1004l-590 204l70 158l543 -299z" />
<glyph unicode="&#xfa;" d="M887 0v137q-59 -55 -108.5 -88t-91.5 -49t-77 -20.5t-65 -4.5q-61 0 -119.5 15.5t-106.5 52.5q-53 41 -74.5 100.5t-21.5 122.5v510h-170v113h281v-567q0 -55 14 -106.5t62 -86.5q33 -23 74.5 -33t82.5 -10q98 0 178 57.5t142 135.5v497h-170v113h280v-776h168v-113h-278 zM350 1004l-24 63l544 297l68 -156z" />
<glyph unicode="&#xfb;" d="M887 0v137q-59 -55 -108.5 -88t-91.5 -49t-77 -20.5t-65 -4.5q-61 0 -119.5 15.5t-106.5 52.5q-53 41 -74.5 100.5t-21.5 122.5v510h-170v113h281v-567q0 -55 14 -106.5t62 -86.5q33 -23 74.5 -33t82.5 -10q98 0 178 57.5t142 135.5v497h-170v113h280v-776h168v-113h-278 zM901 1004l-299 225l-303 -225l-84 36l305 326h164l303 -326z" />
<glyph unicode="&#xfc;" d="M887 0v137q-59 -55 -108.5 -88t-91.5 -49t-77 -20.5t-65 -4.5q-61 0 -119.5 15.5t-106.5 52.5q-53 41 -74.5 100.5t-21.5 122.5v510h-170v113h281v-567q0 -55 14 -106.5t62 -86.5q33 -23 74.5 -33t82.5 -10q98 0 178 57.5t142 135.5v497h-170v113h280v-776h168v-113h-278 zM352 1061v254h174v-254h-174zM655 1061v254h170v-254h-170z" />
<glyph unicode="&#xfd;" d="M1079 776l-598 -1061h174v-112h-520v112h223l199 338l-377 723h-137v113h391v-113h-131l313 -612l340 612h-114v113h366v-113h-129zM369 1004l-25 63l545 297l67 -156z" />
<glyph unicode="&#xfe;" d="M1014 451q0 45 -15.5 105t-53.5 115.5t-103.5 93.5t-165.5 38q-84 0 -149.5 -29t-110.5 -78t-69.5 -113.5t-24.5 -133.5q0 -80 27.5 -146.5t75.5 -115t111.5 -74t135.5 -25.5q63 0 124.5 24.5t109.5 71.5t78 114t30 153zM1126 453q0 -104 -34.5 -191.5t-95 -151 t-142.5 -99.5t-176 -36q-139 0 -227.5 52.5t-135.5 113.5v-426h314v-112h-594v112h170v1456h-170v113h280v-539q55 72 147.5 121t225.5 49q119 0 224.5 -59t166.5 -188q47 -98 47 -215z" />
<glyph unicode="&#xff;" d="M1079 776l-598 -1061h174v-112h-520v112h223l199 338l-377 723h-137v113h391v-113h-131l313 -612l340 612h-114v113h366v-113h-129zM371 1061v254h174v-254h-174zM674 1061v254h170v-254h-170z" />
<glyph unicode="&#x152;" d="M612 1059h-63q-92 0 -168 -33t-131 -94.5t-85 -150.5t-30 -201q0 -227 109.5 -347t296.5 -120h71v946zM555 0q-145 0 -246.5 50t-165 132t-92 185.5t-28.5 210.5q0 147 45 258.5t121.5 185.5t179 111.5t217.5 37.5h561v-321h-113v209h-309v-416h141v115h111v-344h-111 v116h-141v-417h309v209h113v-322h-592z" />
<glyph unicode="&#x153;" d="M571 489q0 59 -10 117t-35 107q-23 45 -67.5 68.5t-91.5 23.5q-68 0 -111 -37t-66.5 -94.5t-33 -128t-9.5 -137.5q0 -23 4.5 -75t24 -106.5t60 -96.5t114.5 -42q82 0 127 43t66.5 105.5t24.5 131t3 121.5zM1075 545q-4 102 -45 180q-14 27 -46 53.5t-85 26.5 q-47 0 -85 -22.5t-65.5 -58.5t-45 -83t-19.5 -96h391zM1186 23q-59 -18 -128 -33t-138 -15q-119 0 -185.5 50.5t-107.5 130.5q-6 -18 -24.5 -49t-50.5 -60t-82 -50.5t-120 -21.5q-29 0 -81 11.5t-105 53.5t-92 126t-39 231q0 86 12 178.5t49 168t103.5 125t177.5 49.5 q104 0 168.5 -46.5t97.5 -117.5q12 25 32.5 53.5t51.5 53t73 41t97 16.5q80 0 131 -33t88 -88q41 -61 57.5 -145.5t16.5 -170.5q0 -12 -1 -24.5t-1 -24.5h-504v-26q0 -156 74.5 -237t191.5 -81q55 0 112.5 15.5t102.5 31.5z" />
<glyph unicode="&#x178;" d="M397 1352v256h172v-256h-172zM698 1352v256h172v-256h-172zM1040 1059l-354 -604v-342h252v-113h-619v113h254v342l-362 604h-139v112h405v-112h-143l295 -492l291 492h-142v112h400v-112h-138z" />
<glyph unicode="&#x2c6;" d="M920 1004l-299 225l-304 -225l-84 36l306 326h163l304 -326z" />
<glyph unicode="&#x2dc;" d="M1022 1280q-29 -90 -98.5 -154.5t-165.5 -64.5q-51 0 -95.5 21.5t-84.5 50.5q-39 27 -74 48t-70 21q-29 0 -49 -16.5t-35.5 -39t-25 -44t-11.5 -33.5l-104 23q35 104 106.5 160.5t149.5 56.5q43 0 82 -21.5t74 -50.5q35 -27 71.5 -49.5t77.5 -22.5q27 0 51.5 13.5t44 34 t33.5 44t21 43.5z" />
<glyph unicode="&#x2000;" horiz-adv-x="821" />
<glyph unicode="&#x2001;" horiz-adv-x="1644" />
<glyph unicode="&#x2002;" horiz-adv-x="821" />
<glyph unicode="&#x2003;" horiz-adv-x="1644" />
<glyph unicode="&#x2004;" horiz-adv-x="546" />
<glyph unicode="&#x2005;" horiz-adv-x="409" />
<glyph unicode="&#x2006;" horiz-adv-x="272" />
<glyph unicode="&#x2007;" horiz-adv-x="272" />
<glyph unicode="&#x2008;" horiz-adv-x="204" />
<glyph unicode="&#x2009;" horiz-adv-x="327" />
<glyph unicode="&#x200a;" horiz-adv-x="90" />
<glyph unicode="&#x2010;" d="M285 453v112h655v-112h-655z" />
<glyph unicode="&#x2011;" d="M285 453v112h655v-112h-655z" />
<glyph unicode="&#x2012;" d="M285 453v112h655v-112h-655z" />
<glyph unicode="&#x2013;" d="M168 453v112h891v-112h-891z" />
<glyph unicode="&#x2014;" d="M0 453v112h1229v-112h-1229z" />
<glyph unicode="&#x2018;" d="M678 657l-219 514h194l156 -514h-131z" />
<glyph unicode="&#x2019;" d="M496 655h-131l155 516h195z" />
<glyph unicode="&#x201a;" d="M510 -252h-131l153 512h195z" />
<glyph unicode="&#x201c;" d="M524 657l-217 514h197l153 -514h-133zM885 657l-219 514h196l154 -514h-131z" />
<glyph unicode="&#x201d;" d="M324 657h-131l153 514h197zM684 657h-133l154 514h196z" />
<glyph unicode="&#x201e;" d="M322 -254h-132l154 514h197zM682 -254h-133l153 514h197z" />
<glyph unicode="&#x2022;" d="M983 608q0 -78 -28.5 -144.5t-79 -117.5t-118 -79.5t-143.5 -28.5q-78 0 -144.5 28.5t-116.5 79.5t-78.5 117.5t-28.5 144.5q0 76 28.5 143.5t78.5 119t117 80t144 28.5q76 0 143.5 -28.5t118 -80t79 -119t28.5 -143.5z" />
<glyph unicode="&#x2026;" d="M340 94q0 -53 -43 -86t-92 -33q-66 0 -106 37t-40 84q0 51 42 87t102 36q61 0 99 -39t38 -86zM768 94q0 -53 -44 -86t-93 -33q-66 0 -106 37t-40 84q0 51 42 87t102 36q61 0 100 -39t39 -86zM1194 94q0 -53 -44 -86t-93 -33q-66 0 -105 37t-39 84q0 51 41 87t101 36 q61 0 100 -39t39 -86z" />
<glyph unicode="&#x202f;" horiz-adv-x="327" />
<glyph unicode="&#x2039;" d="M836 61l-498 394l498 393l34 -98l-378 -295l378 -295z" />
<glyph unicode="&#x203a;" d="M385 61l-35 99l379 295l-379 295l35 98l498 -393z" />
<glyph unicode="&#x205f;" horiz-adv-x="409" />
<glyph unicode="&#x20ac;" d="M76 530h106q-2 20 -3 39t-1 39v35h-143l41 113h119q20 92 66 173t112.5 140t151.5 93t188 34q111 0 195.5 -27.5t160.5 -81.5v109h111v-395h-111v147q-59 61 -156.5 98t-205.5 37q-74 0 -137.5 -23.5t-115 -66.5t-87 -103.5t-54.5 -133.5h584l-41 -113h-561 q-2 -10 -2 -22v-23q0 -16 1 -33.5t1 -34.5h524l-41 -112h-463q47 -160 164 -245t271 -85q104 0 203.5 38t181.5 97l49 -96q-94 -70 -208 -111t-237 -41q-113 0 -203 34t-157.5 93.5t-112.5 140.5t-67 175h-164z" />
<glyph unicode="&#x2122;" d="M356 1298v-518h-90v518h-151v91h393v-91h-152zM1030 780v547l-123 -547h-112l-129 549v-549h-88v609h161l109 -474l106 474h164v-609h-88z" />
<glyph unicode="&#xe000;" horiz-adv-x="890" d="M0 890h890v-890h-890v890z" />
<glyph unicode="&#xfb01;" d="M635 1151q-31 8 -64.5 13t-68.5 5q-55 0 -89 -12t-53.5 -35.5t-25.5 -56.5t-6 -74v-102h217v-113h-217v-663h217v-113h-545v113h217v663h-217v113h217v115q0 35 2 67.5t12 63.5q27 72 94.5 109.5t141.5 37.5q14 0 37.5 -2t50.5 -5l52 -6q26 -3 46 -7zM670 0v113h213v663 h-166v113h276v-776h219v-113h-542zM850 1085v254h143v-254h-143z" />
<glyph unicode="&#xfb02;" d="M643 1149q-33 8 -66.5 14t-68.5 6q-63 0 -98 -15t-52.5 -41t-20.5 -60.5t-3 -73.5v-90h217v-113h-217v-663h217v-113h-543v113h217v663h-219v113h219v151q0 109 63.5 175.5t203.5 66.5q43 0 86 -7t84 -15zM674 0v113h217v1056h-186v113h296v-1169h216v-113h-543z" />
<glyph unicode="&#xfb03;" horiz-adv-x="3686" d="M2667 0v113h360v663h-311v113h424v-776h354v-113h-827zM2995 1087v252h145v-252h-145zM2261 1145q-55 10 -130 17t-134 7q-88 0 -135 -14t-69.5 -37.5t-27 -55.5t-4.5 -67v-106h443v-113h-443v-663h443v-113h-774v113h217v663h-217v113h217v106q0 29 1 60.5t7 54.5 q14 63 58 98t96.5 51.5t103.5 19.5t80 3q31 0 72 -3t83 -7l80 -8q39 -4 64 -9zM1032 1145q-55 10 -130 17t-134 7q-88 0 -135 -14t-69.5 -37.5t-27 -55.5t-4.5 -67v-106h443v-113h-443v-663h443v-113h-774v113h217v663h-217v113h217v106q0 29 1 60.5t7 54.5q14 63 58 98 t96.5 51.5t103.5 19.5t80 3q31 0 72 -3t83 -7l80 -8q39 -4 64 -9z" />
<glyph unicode="&#xfb04;" horiz-adv-x="3686" d="M2657 0v113h358v1058h-348v113h461v-1171h356v-113h-827zM2261 1145q-55 10 -130 17t-134 7q-88 0 -135 -14t-69.5 -37.5t-27 -55.5t-4.5 -67v-106h443v-113h-443v-663h443v-113h-774v113h217v663h-217v113h217v106q0 29 1 60.5t7 54.5q14 63 58 98t96.5 51.5t103.5 19.5 t80 3q31 0 72 -3t83 -7l80 -8q39 -4 64 -9zM1032 1145q-55 10 -130 17t-134 7q-88 0 -135 -14t-69.5 -37.5t-27 -55.5t-4.5 -67v-106h443v-113h-443v-663h443v-113h-774v113h217v663h-217v113h217v106q0 29 1 60.5t7 54.5q14 63 58 98t96.5 51.5t103.5 19.5t80 3q31 0 72 -3 t83 -7l80 -8q39 -4 64 -9z" />
</font>
</defs>
</svg>
